<svg width="840" height="62" viewBox="0 0 840 62" fill="none" xmlns="http://www.w3.org/2000/svg">
<g clip-path="url(#clip0)">
<path d="M33.48 30.224C36.312 30.752 38.64 32.168 40.464 34.472C42.288 36.776 43.2 39.416 43.2 42.392C43.2 45.08 42.528 47.456 41.184 49.52C39.888 51.536 37.992 53.12 35.496 54.272C33 55.424 30.048 56 26.64 56H4.968V5.744H25.704C29.112 5.744 32.04 6.296 34.488 7.4C36.984 8.504 38.856 10.04 40.104 12.008C41.4 13.976 42.048 16.208 42.048 18.704C42.048 21.632 41.256 24.08 39.672 26.048C38.136 28.016 36.072 29.408 33.48 30.224ZM15.048 26.48H24.264C26.664 26.48 28.512 25.952 29.808 24.896C31.104 23.792 31.752 22.232 31.752 20.216C31.752 18.2 31.104 16.64 29.808 15.536C28.512 14.432 26.664 13.88 24.264 13.88H15.048V26.48ZM25.2 47.792C27.648 47.792 29.544 47.216 30.888 46.064C32.28 44.912 32.976 43.28 32.976 41.168C32.976 39.008 32.256 37.328 30.816 36.128C29.376 34.88 27.432 34.256 24.984 34.256H15.048V47.792H25.2ZM61.3136 5.744V56H51.2336V5.744H61.3136ZM81.3527 13.88V26.48H98.2727V34.472H81.3527V47.792H100.433V56H71.2727V5.672H100.433V13.88H81.3527ZM152.577 56H142.497L119.673 21.512V56H109.593V5.672H119.673L142.497 40.232V5.672H152.577V56ZM207.682 5.744L189.25 56H177.01L158.578 5.744H169.378L183.202 45.704L196.954 5.744H207.682ZM223.806 13.88V26.48H240.726V34.472H223.806V47.792H242.886V56H213.726V5.672H242.886V13.88H223.806ZM295.03 56H284.95L262.126 21.512V56H252.046V5.672H262.126L284.95 40.232V5.672H295.03V56ZM314.927 5.744V36.848C314.927 40.256 315.815 42.872 317.591 44.696C319.367 46.472 321.863 47.36 325.079 47.36C328.343 47.36 330.863 46.472 332.639 44.696C334.415 42.872 335.303 40.256 335.303 36.848V5.744H345.455V36.776C345.455 41.048 344.519 44.672 342.647 47.648C340.823 50.576 338.351 52.784 335.231 54.272C332.159 55.76 328.727 56.504 324.935 56.504C321.191 56.504 317.783 55.76 314.711 54.272C311.687 52.784 309.287 50.576 307.511 47.648C305.735 44.672 304.847 41.048 304.847 36.776V5.744H314.927ZM369.903 30.8C369.903 25.856 371.007 21.44 373.215 17.552C375.471 13.616 378.519 10.568 382.359 8.408C386.247 6.2 390.591 5.096 395.391 5.096C401.007 5.096 405.927 6.536 410.151 9.416C414.375 12.296 417.327 16.28 419.007 21.368H407.415C406.263 18.968 404.631 17.168 402.519 15.968C400.455 14.768 398.055 14.168 395.319 14.168C392.391 14.168 389.775 14.864 387.471 16.256C385.215 17.6 383.439 19.52 382.143 22.016C380.895 24.512 380.271 27.44 380.271 30.8C380.271 34.112 380.895 37.04 382.143 39.584C383.439 42.08 385.215 44.024 387.471 45.416C389.775 46.76 392.391 47.432 395.319 47.432C398.055 47.432 400.455 46.832 402.519 45.632C404.631 44.384 406.263 42.56 407.415 40.16H419.007C417.327 45.296 414.375 49.304 410.151 52.184C405.975 55.016 401.055 56.432 395.391 56.432C390.591 56.432 386.247 55.352 382.359 53.192C378.519 50.984 375.471 47.936 373.215 44.048C371.007 40.16 369.903 35.744 369.903 30.8ZM469.304 5.744V56H459.224V34.616H437.696V56H427.616V5.744H437.696V26.408H459.224V5.744H469.304ZM489.306 13.88V26.48H506.226V34.472H489.306V47.792H508.386V56H479.226V5.672H508.386V13.88H489.306ZM527.842 47.504H550.45V56H516.178V48.224L538.642 14.24H516.178V5.744H550.45V13.52L527.842 47.504Z" fill="black"/>
<path d="M599.953 18.1406H619.359V54H617.145C611.051 54 606.668 52.9336 603.996 50.8008C601.301 48.6445 599.953 45.082 599.953 40.1133V18.1406ZM574.57 36.4922C574.57 33.9141 574.91 31.5234 575.59 29.3203C576.27 27.0938 577.324 25.1484 578.754 23.4844C581.848 19.9219 586.277 18.1406 592.043 18.1406H594.75V54H592.922C587.016 54 582.445 52.3828 579.211 49.1484C576.117 46.0547 574.57 41.8359 574.57 36.4922ZM631.98 31.6406C631.91 31.3594 631.852 31.0547 631.805 30.7266L631.664 29.7422C631.57 29.0391 631.523 28.2188 631.523 27.2812C631.523 26.3203 631.734 25.2188 632.156 23.9766C632.602 22.7344 633.316 21.6562 634.301 20.7422C636.41 18.7734 639.668 17.7891 644.074 17.7891L670.195 40.7461C670.43 41.5898 670.547 42.7148 670.547 44.1211C670.547 45.5039 670.312 46.8281 669.844 48.0938C669.375 49.3359 668.625 50.4141 667.594 51.3281C665.391 53.3438 662.18 54.3516 657.961 54.3516L632.227 31.6406H631.98ZM670.793 18.1406C671.496 19.2188 671.848 20.6953 671.848 22.5703C671.848 26.0391 670.547 28.6289 667.945 30.3398L653.848 18.1406H670.793ZM630.961 54C630.258 52.9219 629.906 51.4453 629.906 49.5703C629.906 46.125 631.195 43.5469 633.773 41.8359L647.906 54H630.961ZM707.812 18.1406H727.219V54H725.004C718.91 54 714.527 52.9336 711.855 50.8008C709.16 48.6445 707.812 45.082 707.812 40.1133V18.1406ZM682.43 36.4922C682.43 33.9141 682.77 31.5234 683.449 29.3203C684.129 27.0938 685.184 25.1484 686.613 23.4844C689.707 19.9219 694.137 18.1406 699.902 18.1406H702.609V54H700.781C694.875 54 690.305 52.3828 687.07 49.1484C683.977 46.0547 682.43 41.8359 682.43 36.4922ZM761.742 18.1406H781.148V54H778.934C772.84 54 768.457 52.9336 765.785 50.8008C763.09 48.6445 761.742 45.082 761.742 40.1133V18.1406ZM736.359 36.4922C736.359 33.9141 736.699 31.5234 737.379 29.3203C738.059 27.0938 739.113 25.1484 740.543 23.4844C743.637 19.9219 748.066 18.1406 753.832 18.1406H756.539V54H754.711C748.805 54 744.234 52.3828 741 49.1484C737.906 46.0547 736.359 41.8359 736.359 36.4922ZM790.254 0.210938H809.168V53.9297H790.254V0.210938ZM815.004 18.1406H817.711C823.477 18.1406 827.883 19.9219 830.93 23.4844C833.719 26.7422 835.113 31.0312 835.113 36.3516C835.113 41.7656 833.578 46.0312 830.508 49.1484C827.32 52.3828 822.762 54 816.832 54H815.004V18.1406Z" fill="black"/>
</g>
<defs>
<clipPath id="clip0">
<rect width="840" height="62" fill="white"/>
</clipPath>
</defs>
</svg>
