<svg width="150" height="50" viewBox="0 0 150 50" fill="none" xmlns="http://www.w3.org/2000/svg">
<rect width="150" height="50" fill="black"/>
<path d="M21.9766 20.0703H31.6797V38H30.5723C27.5254 38 25.334 37.4668 23.998 36.4004C22.6504 35.3223 21.9766 33.541 21.9766 31.0566V20.0703ZM9.28516 29.2461C9.28516 27.957 9.45508 26.7617 9.79492 25.6602C10.1348 24.5469 10.6621 23.5742 11.377 22.7422C12.9238 20.9609 15.1387 20.0703 18.0215 20.0703H19.375V38H18.4609C15.5078 38 13.2227 37.1914 11.6055 35.5742C10.0586 34.0273 9.28516 31.918 9.28516 29.2461ZM37.9902 26.8203C37.9551 26.6797 37.9258 26.5273 37.9023 26.3633L37.832 25.8711C37.7852 25.5195 37.7617 25.1094 37.7617 24.6406C37.7617 24.1602 37.8672 23.6094 38.0781 22.9883C38.3008 22.3672 38.6582 21.8281 39.1504 21.3711C40.2051 20.3867 41.834 19.8945 44.0371 19.8945L57.0977 31.373C57.2148 31.7949 57.2734 32.3574 57.2734 33.0605C57.2734 33.752 57.1562 34.4141 56.9219 35.0469C56.6875 35.668 56.3125 36.207 55.7969 36.6641C54.6953 37.6719 53.0898 38.1758 50.9805 38.1758L38.1133 26.8203H37.9902ZM57.3965 20.0703C57.748 20.6094 57.9238 21.3477 57.9238 22.2852C57.9238 24.0195 57.2734 25.3145 55.9727 26.1699L48.9238 20.0703H57.3965ZM37.4805 38C37.1289 37.4609 36.9531 36.7227 36.9531 35.7852C36.9531 34.0625 37.5977 32.7734 38.8867 31.918L45.9531 38H37.4805ZM75.9062 20.0703H85.6094V38H84.502C81.4551 38 79.2637 37.4668 77.9277 36.4004C76.5801 35.3223 75.9062 33.541 75.9062 31.0566V20.0703ZM63.2148 29.2461C63.2148 27.957 63.3848 26.7617 63.7246 25.6602C64.0645 24.5469 64.5918 23.5742 65.3066 22.7422C66.8535 20.9609 69.0684 20.0703 71.9512 20.0703H73.3047V38H72.3906C69.4375 38 67.1523 37.1914 65.5352 35.5742C63.9883 34.0273 63.2148 31.918 63.2148 29.2461ZM102.871 20.0703H112.574V38H111.467C108.42 38 106.229 37.4668 104.893 36.4004C103.545 35.3223 102.871 33.541 102.871 31.0566V20.0703ZM90.1797 29.2461C90.1797 27.957 90.3496 26.7617 90.6895 25.6602C91.0293 24.5469 91.5566 23.5742 92.2715 22.7422C93.8184 20.9609 96.0332 20.0703 98.916 20.0703H100.27V38H99.3555C96.4023 38 94.1172 37.1914 92.5 35.5742C90.9531 34.0273 90.1797 31.918 90.1797 29.2461ZM117.127 11.1055H126.584V37.9648H117.127V11.1055ZM129.502 20.0703H130.855C133.738 20.0703 135.941 20.9609 137.465 22.7422C138.859 24.3711 139.557 26.5156 139.557 29.1758C139.557 31.8828 138.789 34.0156 137.254 35.5742C135.66 37.1914 133.381 38 130.416 38H129.502V20.0703Z" fill="white"/>
</svg>
