<svg width="932" height="62" viewBox="0 0 932 62" fill="none" xmlns="http://www.w3.org/2000/svg">
<g clip-path="url(#clip0)">
<path d="M45.4922 37.4766C46.4531 34.3125 47.5312 30.6094 48.7266 26.3672C49.9453 22.1016 50.7891 19.1484 51.2578 17.5078C51.7266 15.8672 52.1484 14.3906 52.5234 13.0781C52.9219 11.7422 53.1211 10.6641 53.1211 9.84375C53.1211 9.02344 52.9805 8.4375 52.6992 8.08594C52.4414 7.73438 52.0898 7.46484 51.6445 7.27734C51.2227 7.06641 50.7422 6.90234 50.2031 6.78516C49.6641 6.64453 49.125 6.46875 48.5859 6.25781V4.04297H62.0508V6.25781C61.7227 6.49219 61.3477 6.67969 60.9258 6.82031C60.5273 6.96094 60.1289 7.125 59.7305 7.3125C58.7461 7.73438 58.1016 8.27344 57.7969 8.92969C57.3984 9.84375 56.9766 11.0625 56.5312 12.5859L47.3203 43.7344L45.4922 37.4766ZM46.0195 48.0938L44.0508 54.8086H39.6562L30.1289 22.4648H29.9531L23.7656 44.2617L21.9727 37.7578L26.9648 20.4609C27.2227 19.5469 27.4688 18.75 27.7031 18.0703C27.9375 17.3906 28.1016 16.7461 28.1953 16.1367C27.7969 13.8164 27.3047 11.9297 26.7188 10.4766C26.1328 9 25.6641 8.13281 25.3125 7.875C24.9844 7.59375 24.6328 7.37109 24.2578 7.20703C23.8828 7.04297 23.5078 6.90234 23.1328 6.78516C22.7578 6.66797 22.4297 6.49219 22.1484 6.25781V4.04297H38.8828V6.25781C38.4375 6.46875 37.9688 6.63281 37.4766 6.75C36.9844 6.86719 36.5273 7.00781 36.1055 7.17188C35.1211 7.54688 34.6289 8.07422 34.6289 8.75391C34.6289 9.43359 34.7344 10.125 34.9453 10.8281C35.1797 11.5312 35.4609 12.4102 35.7891 13.4648L46.0195 48.0938ZM22.5352 48.6211L20.7773 54.8086H16.1719L3.58594 11.3203C2.88281 9.04687 2.23828 7.75781 1.65234 7.45312C1.37109 7.28906 1.07812 7.14844 0.773438 7.03125C-0.09375 6.75 -0.621094 6.49219 -0.808594 6.25781V4.04297H15.6094V6.25781C15.1875 6.49219 14.7305 6.67969 14.2383 6.82031C13.7695 6.9375 13.3359 7.07812 12.9375 7.24219C11.9531 7.64062 11.4609 8.19141 11.4609 8.89453C11.4609 9.57422 11.5781 10.2539 11.8125 10.9336C12.0469 11.6133 12.2812 12.3633 12.5156 13.1836L22.5352 48.6211ZM94.8867 11.8125C94.8867 10.0781 94.7109 8.96484 94.3594 8.47266C94.0078 7.95703 93.6797 7.62891 93.375 7.48828C93.0703 7.34766 92.7422 7.21875 92.3906 7.10156C91.2422 6.77344 90.4336 6.44531 89.9648 6.11719V4.04297H108.422V6.11719C107.789 6.39844 107.18 6.62109 106.594 6.78516C106.031 6.94922 105.527 7.16016 105.082 7.41797C104.121 7.98047 103.641 9.01172 103.641 10.5117V47.5312C103.641 49.0312 104.121 50.0625 105.082 50.625C105.527 50.8828 106.031 51.0938 106.594 51.2578C107.18 51.4219 107.789 51.6445 108.422 51.9258V54H89.9648V51.9258C92.6836 51.5508 94.2539 50.2969 94.6758 48.1641C94.8164 47.4609 94.8867 46.6406 94.8867 45.7031V11.8125ZM76.6758 46.0195C76.6758 48.5742 77.168 50.1094 78.1523 50.625C78.4805 50.7656 79.0195 50.9531 79.7695 51.1875C80.543 51.3984 81.1523 51.6445 81.5977 51.9258V54H63.1758V51.9258C63.8086 51.6445 64.4062 51.4219 64.9688 51.2578C65.5312 51.0938 66.0352 50.8828 66.4805 50.625C67.4414 50.0625 67.9219 49.0312 67.9219 47.5312V10.5117C67.9219 9.01172 67.4414 7.98047 66.4805 7.41797C66.0352 7.16016 65.5312 6.94922 64.9688 6.78516C64.4062 6.62109 63.8086 6.39844 63.1758 6.11719V4.04297H81.5977V6.11719C81.0586 6.46875 80.4141 6.75 79.6641 6.96094C78.9141 7.17188 78.3867 7.35937 78.082 7.52344C77.8008 7.66406 77.5547 7.91016 77.3438 8.26172C76.8984 9.01172 76.6758 10.3125 76.6758 12.1641V46.0195ZM91.9688 29.6016H79.5938V26.3672H91.9688V29.6016ZM136.301 38.1445H125.613L126.492 34.9102H135.246L136.301 38.1445ZM129.34 18.7383L121.078 43.418C120.352 45.5039 120 47.0742 120.023 48.1289C120.047 49.1602 120.211 49.8398 120.516 50.168C120.82 50.4961 121.219 50.7305 121.711 50.8711C122.203 51.0117 122.766 51.1289 123.398 51.2227C124.031 51.3164 124.676 51.5273 125.332 51.8555V54H110.039V51.8555C110.531 51.5742 111.047 51.3516 111.586 51.1875C112.125 51.0234 112.641 50.8359 113.133 50.625C114.281 50.1094 115.02 49.3359 115.348 48.3047L127.23 13.043L129.34 18.7383ZM128.461 9.45703C127.195 9.01172 126.34 8.56641 125.895 8.12109C125.941 7.62891 126 7.17188 126.07 6.75C126.164 6.30469 126.246 5.87109 126.316 5.44922C126.41 5.00391 126.504 4.64062 126.598 4.35938C131.051 3.42187 133.629 2.95312 134.332 2.95312C134.824 3.35156 135.281 4.08984 135.703 5.16797L151.137 47.7422C151.652 49.1484 152.426 50.1094 153.457 50.625C153.926 50.8594 154.418 51.0586 154.934 51.2227C155.473 51.3633 156.035 51.5742 156.621 51.8555V54H137.602V51.8555C138.141 51.5977 138.703 51.4219 139.289 51.3281C139.875 51.2109 140.414 51.0938 140.906 50.9766C141.984 50.7188 142.523 50.1914 142.523 49.3945C142.523 48.6914 141.961 46.793 140.836 43.6992C139.711 40.6055 138.715 37.8516 137.848 35.4375C135.434 28.6641 133.066 21.8906 130.746 15.1172L128.461 9.45703ZM177.504 4.04297V45.9492C177.504 47.8008 177.703 48.9961 178.102 49.5352C178.5 50.0508 178.863 50.3906 179.191 50.5547C179.543 50.6953 179.93 50.8125 180.352 50.9062C181.547 51.2109 182.449 51.5508 183.059 51.9258V54H163.301V51.9258C163.816 51.5977 164.484 51.3281 165.305 51.1172C166.148 50.8828 166.734 50.6953 167.062 50.5547C167.414 50.4141 167.719 50.1797 167.977 49.8516C168.469 49.1484 168.715 47.8477 168.715 45.9492V4.04297H177.504ZM187.945 4.04297C188.906 4.04297 190.512 3.86719 192.762 3.51562V20.1445H190.371C190.043 19.2539 189.75 18.3164 189.492 17.332C189.258 16.3242 188.988 15.3398 188.684 14.3789C188.379 13.3945 188.027 12.457 187.629 11.5664C187.23 10.6523 186.715 9.85547 186.082 9.17578C184.676 7.67578 182.789 6.92578 180.422 6.92578V4.04297H187.945ZM153.562 3.51562C154.688 3.86719 155.543 4.04297 156.129 4.04297H165.797V6.92578C162.422 6.92578 160.031 8.48437 158.625 11.6016C157.945 13.0781 157.406 14.6602 157.008 16.3477C156.609 18.0117 156.258 19.2773 155.953 20.1445H153.492V3.58594L153.562 3.51562Z" fill="black"/>
<path d="M526.492 37.4766C527.453 34.3125 528.531 30.6094 529.727 26.3672C530.945 22.1016 531.789 19.1484 532.258 17.5078C532.727 15.8672 533.148 14.3906 533.523 13.0781C533.922 11.7422 534.121 10.6641 534.121 9.84375C534.121 9.02344 533.98 8.4375 533.699 8.08594C533.441 7.73438 533.09 7.46484 532.645 7.27734C532.223 7.06641 531.742 6.90234 531.203 6.78516C530.664 6.64453 530.125 6.46875 529.586 6.25781V4.04297H543.051V6.25781C542.723 6.49219 542.348 6.67969 541.926 6.82031C541.527 6.96094 541.129 7.125 540.73 7.3125C539.746 7.73438 539.102 8.27344 538.797 8.92969C538.398 9.84375 537.977 11.0625 537.531 12.5859L528.32 43.7344L526.492 37.4766ZM527.02 48.0938L525.051 54.8086H520.656L511.129 22.4648H510.953L504.766 44.2617L502.973 37.7578L507.965 20.4609C508.223 19.5469 508.469 18.75 508.703 18.0703C508.938 17.3906 509.102 16.7461 509.195 16.1367C508.797 13.8164 508.305 11.9297 507.719 10.4766C507.133 9 506.664 8.13281 506.312 7.875C505.984 7.59375 505.633 7.37109 505.258 7.20703C504.883 7.04297 504.508 6.90234 504.133 6.78516C503.758 6.66797 503.43 6.49219 503.148 6.25781V4.04297H519.883V6.25781C519.438 6.46875 518.969 6.63281 518.477 6.75C517.984 6.86719 517.527 7.00781 517.105 7.17188C516.121 7.54688 515.629 8.07422 515.629 8.75391C515.629 9.43359 515.734 10.125 515.945 10.8281C516.18 11.5312 516.461 12.4102 516.789 13.4648L527.02 48.0938ZM503.535 48.6211L501.777 54.8086H497.172L484.586 11.3203C483.883 9.04687 483.238 7.75781 482.652 7.45312C482.371 7.28906 482.078 7.14844 481.773 7.03125C480.906 6.75 480.379 6.49219 480.191 6.25781V4.04297H496.609V6.25781C496.188 6.49219 495.73 6.67969 495.238 6.82031C494.77 6.9375 494.336 7.07812 493.938 7.24219C492.953 7.64062 492.461 8.19141 492.461 8.89453C492.461 9.57422 492.578 10.2539 492.812 10.9336C493.047 11.6133 493.281 12.3633 493.516 13.1836L503.535 48.6211ZM575.887 11.8125C575.887 10.0781 575.711 8.96484 575.359 8.47266C575.008 7.95703 574.68 7.62891 574.375 7.48828C574.07 7.34766 573.742 7.21875 573.391 7.10156C572.242 6.77344 571.434 6.44531 570.965 6.11719V4.04297H589.422V6.11719C588.789 6.39844 588.18 6.62109 587.594 6.78516C587.031 6.94922 586.527 7.16016 586.082 7.41797C585.121 7.98047 584.641 9.01172 584.641 10.5117V47.5312C584.641 49.0312 585.121 50.0625 586.082 50.625C586.527 50.8828 587.031 51.0938 587.594 51.2578C588.18 51.4219 588.789 51.6445 589.422 51.9258V54H570.965V51.9258C573.684 51.5508 575.254 50.2969 575.676 48.1641C575.816 47.4609 575.887 46.6406 575.887 45.7031V11.8125ZM557.676 46.0195C557.676 48.5742 558.168 50.1094 559.152 50.625C559.48 50.7656 560.02 50.9531 560.77 51.1875C561.543 51.3984 562.152 51.6445 562.598 51.9258V54H544.176V51.9258C544.809 51.6445 545.406 51.4219 545.969 51.2578C546.531 51.0938 547.035 50.8828 547.48 50.625C548.441 50.0625 548.922 49.0312 548.922 47.5312V10.5117C548.922 9.01172 548.441 7.98047 547.48 7.41797C547.035 7.16016 546.531 6.94922 545.969 6.78516C545.406 6.62109 544.809 6.39844 544.176 6.11719V4.04297H562.598V6.11719C562.059 6.46875 561.414 6.75 560.664 6.96094C559.914 7.17188 559.387 7.35937 559.082 7.52344C558.801 7.66406 558.555 7.91016 558.344 8.26172C557.898 9.01172 557.676 10.3125 557.676 12.1641V46.0195ZM572.969 29.6016H560.594V26.3672H572.969V29.6016ZM617.301 38.1445H606.613L607.492 34.9102H616.246L617.301 38.1445ZM610.34 18.7383L602.078 43.418C601.352 45.5039 601 47.0742 601.023 48.1289C601.047 49.1602 601.211 49.8398 601.516 50.168C601.82 50.4961 602.219 50.7305 602.711 50.8711C603.203 51.0117 603.766 51.1289 604.398 51.2227C605.031 51.3164 605.676 51.5273 606.332 51.8555V54H591.039V51.8555C591.531 51.5742 592.047 51.3516 592.586 51.1875C593.125 51.0234 593.641 50.8359 594.133 50.625C595.281 50.1094 596.02 49.3359 596.348 48.3047L608.23 13.043L610.34 18.7383ZM609.461 9.45703C608.195 9.01172 607.34 8.56641 606.895 8.12109C606.941 7.62891 607 7.17188 607.07 6.75C607.164 6.30469 607.246 5.87109 607.316 5.44922C607.41 5.00391 607.504 4.64062 607.598 4.35938C612.051 3.42187 614.629 2.95312 615.332 2.95312C615.824 3.35156 616.281 4.08984 616.703 5.16797L632.137 47.7422C632.652 49.1484 633.426 50.1094 634.457 50.625C634.926 50.8594 635.418 51.0586 635.934 51.2227C636.473 51.3633 637.035 51.5742 637.621 51.8555V54H618.602V51.8555C619.141 51.5977 619.703 51.4219 620.289 51.3281C620.875 51.2109 621.414 51.0938 621.906 50.9766C622.984 50.7188 623.523 50.1914 623.523 49.3945C623.523 48.6914 622.961 46.793 621.836 43.6992C620.711 40.6055 619.715 37.8516 618.848 35.4375C616.434 28.6641 614.066 21.8906 611.746 15.1172L609.461 9.45703ZM658.504 4.04297V45.9492C658.504 47.8008 658.703 48.9961 659.102 49.5352C659.5 50.0508 659.863 50.3906 660.191 50.5547C660.543 50.6953 660.93 50.8125 661.352 50.9062C662.547 51.2109 663.449 51.5508 664.059 51.9258V54H644.301V51.9258C644.816 51.5977 645.484 51.3281 646.305 51.1172C647.148 50.8828 647.734 50.6953 648.062 50.5547C648.414 50.4141 648.719 50.1797 648.977 49.8516C649.469 49.1484 649.715 47.8477 649.715 45.9492V4.04297H658.504ZM668.945 4.04297C669.906 4.04297 671.512 3.86719 673.762 3.51562V20.1445H671.371C671.043 19.2539 670.75 18.3164 670.492 17.332C670.258 16.3242 669.988 15.3398 669.684 14.3789C669.379 13.3945 669.027 12.457 668.629 11.5664C668.23 10.6523 667.715 9.85547 667.082 9.17578C665.676 7.67578 663.789 6.92578 661.422 6.92578V4.04297H668.945ZM634.562 3.51562C635.688 3.86719 636.543 4.04297 637.129 4.04297H646.797V6.92578C643.422 6.92578 641.031 8.48437 639.625 11.6016C638.945 13.0781 638.406 14.6602 638.008 16.3477C637.609 18.0117 637.258 19.2773 636.953 20.1445H634.492V3.58594L634.562 3.51562Z" fill="black"/>
<path d="M283.616 5.816L269.072 56H261.728L250.064 15.608L237.968 56L230.696 56.072L216.656 5.816H223.64L234.584 48.368L246.68 5.816H254.024L265.544 48.224L276.56 5.816H283.616ZM297.338 11.144V27.92H315.626V33.32H297.338V50.6H317.786V56H290.786V5.744H317.786V11.144H297.338Z" fill="black"/>
<path d="M764.616 5.816L750.072 56H742.728L731.064 15.608L718.968 56L711.696 56.072L697.656 5.816H704.64L715.584 48.368L727.68 5.816H735.024L746.544 48.224L757.56 5.816H764.616ZM778.338 11.144V27.92H796.626V33.32H778.338V50.6H798.786V56H771.786V5.744H798.786V11.144H778.338Z" fill="black"/>
<path d="M371.547 7.15234H374.5C384.438 7.15234 390.344 11.5234 392.219 20.2656C392.805 22.9141 393.098 26.0078 393.098 29.5469C393.098 33.0859 392.723 36.4609 391.973 39.6719C391.246 42.8828 390.121 45.625 388.598 47.8984C385.434 52.6328 380.734 55 374.5 55H371.547V7.15234ZM346.797 7.15234H365.711V54.9297H346.797V7.15234ZM426.742 7.15234H429.484C438.18 7.15234 443.922 11.0312 446.711 18.7891C447.836 21.9766 448.398 25.6445 448.398 29.793C448.398 36.7773 447.051 42.5312 444.355 47.0547C441.168 52.3516 436.211 55 429.484 55H426.742V7.15234ZM418.27 55C409.621 55 403.891 50.6172 401.078 41.8516C399.93 38.2891 399.355 34.2695 399.355 29.793C399.355 20.6758 401.887 14.2422 406.949 10.4922C409.926 8.26563 413.699 7.15234 418.27 7.15234H421.012V55H418.27Z" fill="black"/>
<path d="M852.547 7.15234H855.5C865.438 7.15234 871.344 11.5234 873.219 20.2656C873.805 22.9141 874.098 26.0078 874.098 29.5469C874.098 33.0859 873.723 36.4609 872.973 39.6719C872.246 42.8828 871.121 45.625 869.598 47.8984C866.434 52.6328 861.734 55 855.5 55H852.547V7.15234ZM827.797 7.15234H846.711V54.9297H827.797V7.15234ZM907.742 7.15234H910.484C919.18 7.15234 924.922 11.0312 927.711 18.7891C928.836 21.9766 929.398 25.6445 929.398 29.793C929.398 36.7773 928.051 42.5312 925.355 47.0547C922.168 52.3516 917.211 55 910.484 55H907.742V7.15234ZM899.27 55C890.621 55 884.891 50.6172 882.078 41.8516C880.93 38.2891 880.355 34.2695 880.355 29.793C880.355 20.6758 882.887 14.2422 887.949 10.4922C890.926 8.26563 894.699 7.15234 899.27 7.15234H902.012V55H899.27Z" fill="black"/>
</g>
<defs>
<clipPath id="clip0">
<rect width="932" height="62" fill="white"/>
</clipPath>
</defs>
</svg>
