<svg width="196" height="60" viewBox="0 0 196 60" fill="none" xmlns="http://www.w3.org/2000/svg">
<g id="w10" clip-path="url(#clip0)">
<path id="w10_2" d="M27.64 51L17.68 33.9H11.08V51H5.62V9.18H19.12C22.28 9.18 24.94 9.72 27.1 10.8C29.3 11.88 30.94 13.34 32.02 15.18C33.1 17.02 33.64 19.12 33.64 21.48C33.64 24.36 32.8 26.9 31.12 29.1C29.48 31.3 27 32.76 23.68 33.48L34.18 51H27.64ZM11.08 29.52H19.12C22.08 29.52 24.3 28.8 25.78 27.36C27.26 25.88 28 23.92 28 21.48C28 19 27.26 17.08 25.78 15.72C24.34 14.36 22.12 13.68 19.12 13.68H11.08V29.52ZM47.5839 13.62V27.6H62.8239V32.1H47.5839V46.5H64.6239V51H42.1239V9.12H64.6239V13.62H47.5839ZM97.6056 41.7H79.3656L76.0056 51H70.2456L85.3656 9.42H91.6656L106.726 51H100.966L97.6056 41.7ZM96.0456 37.26L88.4856 16.14L80.9256 37.26H96.0456ZM118.775 46.56H133.415V51H113.315V9.18H118.775V46.56ZM144.674 46.56H159.314V51H139.214V9.18H144.674V46.56ZM194.392 9.18L180.772 35.22V51H175.312V35.22L161.632 9.18H167.692L178.012 30.36L188.332 9.18H194.392Z" fill="white"/>
</g>
<defs>
<clipPath id="clip0">
<rect width="196" height="60" fill="white"/>
</clipPath>
</defs>
</svg>
