<svg width="92" height="60" viewBox="0 0 92 60" fill="none" xmlns="http://www.w3.org/2000/svg">
<g id="w11">
<g id="w11_2">
<path id="Vector" d="M45.7761 54.2537C59.3772 54.2537 70.403 43.2279 70.403 29.6269C70.403 16.0258 59.3772 5 45.7761 5C32.1751 5 21.1493 16.0258 21.1493 29.6269C21.1493 43.2279 32.1751 54.2537 45.7761 54.2537Z" fill="white"/>
<path id="Vector_2" d="M46 5C26.7463 5 9.95522 14.6269 1 29.1791C9.95522 43.7313 26.7463 53.3582 46 53.5821C65.2537 53.5821 82.0448 43.9552 91 29.403C82.0448 14.8507 65.2537 5 46 5ZM46 45.5224C31.2239 45.5224 24.9552 39.2537 24.9552 29.403C24.9552 19.7761 32.5672 12.8358 46 12.8358C59.4328 12.8358 66.8209 19.7761 66.8209 29.403C67.0448 39.2537 59.4328 45.5224 46 45.5224Z" fill="white"/>
<path id="Vector_3" d="M45.7761 54.2537C59.3772 54.2537 70.403 43.2279 70.403 29.6269C70.403 16.0258 59.3772 5 45.7761 5C32.1751 5 21.1493 16.0258 21.1493 29.6269C21.1493 43.2279 32.1751 54.2537 45.7761 54.2537Z" fill="black"/>
<path id="Vector_4" d="M46 23.1343C41.7463 23.1343 39.5075 25.3731 39.5075 29.403C39.5075 33.2089 41.9702 35 46 35C50.0299 35 52.7165 32.9851 52.7165 29.403C52.7165 25.3731 50.0299 23.1343 46 23.1343Z" fill="white"/>
</g>
</g>
</svg>
