<svg width="336" height="60" viewBox="0 0 336 60" fill="none" xmlns="http://www.w3.org/2000/svg">
<g id="w12" clip-path="url(#clip0)">
<path id="w12_2" d="M28.54 8.46V43.68C28.58 44.72 28.96 45.6 29.68 46.32C30.44 47.04 31.34 47.4 32.38 47.4H33.1L33.16 48H14.92V47.4H15.7C16.7 47.4 17.56 47.04 18.28 46.32C19.04 45.6 19.46 44.74 19.54 43.74V8.46H11.44C9.6 8.5 8.14 9.08 7.06 10.2C5.98 11.32 5.44 12.78 5.44 14.58V15.3H4.84V4.86C6.48 5.54 8.84 5.9 11.92 5.94H36.1C37.34 5.94 38.68 5.82 40.12 5.58C41.6 5.34 42.62 5.1 43.18 4.86V15.3H42.58V14.58C42.58 12.1 41.64 10.34 39.76 9.3C38.88 8.78 37.82 8.5 36.58 8.46H28.54ZM82.9675 47.4H83.5075V48H64.3675V47.4H64.9075C65.7875 47.4 66.4275 47.14 66.8275 46.62C67.2675 46.06 67.4875 45.54 67.4875 45.06C67.4875 44.58 67.3875 44.1 67.1875 43.62L64.2475 36.24H50.2075L47.0875 43.62C46.8875 44.14 46.7875 44.64 46.7875 45.12C46.7875 45.56 47.0075 46.06 47.4475 46.62C47.8875 47.14 48.5475 47.4 49.4275 47.4H49.9075V48H37.0675V47.4H37.6075C38.5275 47.4 39.4475 47.12 40.3675 46.56C41.2875 46 42.0475 45.16 42.6475 44.04L56.5075 12.66C58.3875 8.7 59.3875 6.08 59.5075 4.8H60.0475L77.8675 43.92C78.4675 45.08 79.2275 45.96 80.1475 46.56C81.0675 47.12 82.0075 47.4 82.9675 47.4ZM51.2275 33.72H63.2275L57.4075 18.96L51.2275 33.72ZM84.9367 47.4C85.9767 47.4 86.8567 47.04 87.5767 46.32C88.3367 45.56 88.7367 44.66 88.7767 43.62V10.38C88.7367 9.34 88.3367 8.46 87.5767 7.74C86.8567 6.98 85.9767 6.6 84.9367 6.6H84.1567V6H102.397L102.337 6.6H101.617C100.577 6.6 99.6767 6.98 98.9167 7.74C98.1567 8.46 97.7767 9.34 97.7767 10.38V45.42H105.637C108.557 45.42 110.997 44.58 112.957 42.9C114.957 41.22 116.437 38.84 117.397 35.76H117.997L115.237 48H84.1567V47.4H84.9367ZM121.558 47.4C122.598 47.4 123.478 47.04 124.198 46.32C124.958 45.56 125.358 44.66 125.398 43.62V10.2C125.318 9.16 125.018 8.4 124.498 7.92C123.538 7.04 122.558 6.6 121.558 6.6H120.778V6H143.758C145.718 6 147.338 5.86 148.618 5.58C149.898 5.26 150.678 5.04 150.958 4.92V15.42L150.358 15.36V14.7C150.358 12.22 149.438 10.46 147.598 9.42C146.718 8.9 145.678 8.62 144.478 8.58H134.398V26.04H142.318C143.798 26 145.018 25.5 145.978 24.54C146.938 23.54 147.418 22.32 147.418 20.88V20.34H148.018V34.2H147.418V33.72C147.418 32.24 146.938 31.02 145.978 30.06C145.058 29.1 143.878 28.6 142.438 28.56H134.398V45.42H142.258C145.178 45.42 147.618 44.58 149.578 42.9C151.578 41.22 153.058 38.84 154.018 35.76H154.618L151.858 48H120.778V47.4H121.558ZM204.895 6.6C203.495 6.6 202.435 7.2 201.715 8.4C201.395 8.92 201.215 9.52 201.175 10.2V41.16C201.175 43.84 201.355 46.1 201.715 47.94L201.895 48.84H201.355L171.055 19.98V43.8C171.055 44.8 171.415 45.66 172.135 46.38C172.855 47.06 173.715 47.4 174.715 47.4H175.855V48H157.675V47.4H158.755C159.795 47.4 160.675 47.06 161.395 46.38C162.115 45.66 162.475 44.78 162.475 43.74V12.6C162.475 9.96 162.295 7.76 161.935 6L161.815 5.1H162.355L192.655 33.96V10.26C192.615 9.22 192.235 8.36 191.515 7.68C190.795 6.96 189.935 6.6 188.935 6.6H187.855V6H206.035V6.6H204.895ZM232.329 8.46V43.68C232.369 44.72 232.749 45.6 233.469 46.32C234.229 47.04 235.129 47.4 236.169 47.4H236.889L236.949 48H218.709V47.4H219.489C220.489 47.4 221.349 47.04 222.069 46.32C222.829 45.6 223.249 44.74 223.329 43.74V8.46H215.229C213.389 8.5 211.929 9.08 210.849 10.2C209.769 11.32 209.229 12.78 209.229 14.58V15.3H208.629V4.86C210.269 5.54 212.629 5.9 215.709 5.94H239.889C241.129 5.94 242.469 5.82 243.909 5.58C245.389 5.34 246.409 5.1 246.969 4.86V15.3H246.369V14.58C246.369 12.1 245.429 10.34 243.549 9.3C242.669 8.78 241.609 8.5 240.369 8.46H232.329ZM251.05 47.4C252.09 47.4 252.97 47.04 253.69 46.32C254.45 45.56 254.85 44.66 254.89 43.62V10.2C254.81 9.16 254.51 8.4 253.99 7.92C253.03 7.04 252.05 6.6 251.05 6.6H250.27V6H273.25C275.21 6 276.83 5.86 278.11 5.58C279.39 5.26 280.17 5.04 280.45 4.92V15.42L279.85 15.36V14.7C279.85 12.22 278.93 10.46 277.09 9.42C276.21 8.9 275.17 8.62 273.97 8.58H263.89V26.04H271.81C273.29 26 274.51 25.5 275.47 24.54C276.43 23.54 276.91 22.32 276.91 20.88V20.34H277.51V34.2H276.91V33.72C276.91 32.24 276.43 31.02 275.47 30.06C274.55 29.1 273.37 28.6 271.93 28.56H263.89V45.42H271.75C274.67 45.42 277.11 44.58 279.07 42.9C281.07 41.22 282.55 38.84 283.51 35.76H284.11L281.35 48H250.27V47.4H251.05ZM309.667 6C316.747 6 322.347 7.88 326.467 11.64C330.587 15.4 332.647 20.52 332.647 27C332.647 33.48 330.587 38.6 326.467 42.36C322.347 46.12 316.747 48 309.667 48H287.887V47.4H288.667C289.707 47.4 290.587 47.04 291.307 46.32C292.067 45.56 292.467 44.66 292.507 43.62V10.02C292.507 9.06 292.107 8.26 291.307 7.62C290.547 6.94 289.667 6.6 288.667 6.6H287.887V6H309.667ZM308.887 45.42C311.767 45.42 314.247 44.68 316.327 43.2C318.447 41.72 320.067 39.6 321.187 36.84C322.307 34.04 322.867 31 322.867 27.72C322.867 24.44 322.527 21.66 321.847 19.38C321.207 17.06 320.287 15.1 319.087 13.5C316.607 10.18 313.207 8.52 308.887 8.52H301.507V45.42H308.887Z" fill="white"/>
</g>
<defs>
<clipPath id="clip0">
<rect width="336" height="60" fill="white"/>
</clipPath>
</defs>
</svg>
