<svg width="279" height="60" viewBox="0 0 279 60" fill="none" xmlns="http://www.w3.org/2000/svg">
<g id="w13" clip-path="url(#clip0)">
<path id="w13_2" d="M11.4 50.94C10.72 50.94 10.28 50.5 10.08 49.62C9.88 49.18 9.78 48.38 9.78 47.22C9.78 43.74 9.74 40.64 9.66 37.92C9.54 34 9.48 29.86 9.48 25.5V12.3C9.48 11.94 9.64 11.6 9.96 11.28C10.32 10.92 10.68 10.74 11.04 10.74L17.94 10.8C19.22 10.84 20.9 10.86 22.98 10.86C25.98 10.86 28.3 10.84 29.94 10.8L32.16 10.74C34.56 10.66 36.54 10.62 38.1 10.62C40.62 10.62 43.02 10.98 45.3 11.7C47.98 12.5 50.16 13.88 51.84 15.84C53.72 17.96 54.66 20.82 54.66 24.42C54.66 30.5 53.12 34.9 50.04 37.62C47.32 40.18 43.26 41.46 37.86 41.46H29.64C29.68 42.38 29.7 43.36 29.7 44.4C29.7 44.76 29.68 45.2 29.64 45.72C29.64 46.2 29.64 46.86 29.64 47.7C29.64 49.02 29.36 49.86 28.8 50.22C28.36 50.58 27.54 50.76 26.34 50.76C24.58 50.76 23.36 50.78 22.68 50.82C19.92 50.82 17.72 50.86 16.08 50.94H11.4ZM32.88 34.26C33.72 34.26 34.34 33.46 34.74 31.86C35.06 30.78 35.3 29.18 35.46 27.06C35.54 25.9 35.58 24.6 35.58 23.16V22.5C35.58 21.86 35.48 20.9 35.28 19.62C35.12 18.9 34.94 18.34 34.74 17.94C34.54 17.5 34.28 17.14 33.96 16.86C33.64 16.5 33.28 16.32 32.88 16.32C32.68 16.32 32.5 16.4 32.34 16.56C32.22 16.72 32.1 16.92 31.98 17.16C31.54 17.88 31.14 19.48 30.78 21.96C30.66 22.68 30.56 23.76 30.48 25.2C30.28 27.4 30.18 30.34 30.18 34.02C30.18 34.02 30.2 34.04 30.24 34.08C30.28 34.12 30.36 34.16 30.48 34.2L31.2 34.26H32.88ZM64.732 51C64.532 51 64.232 50.98 63.832 50.94C63.432 50.86 62.952 50.8 62.392 50.76L61.132 50.46C60.932 50.42 60.772 50.38 60.652 50.34C60.572 50.26 60.552 50.2 60.592 50.16C60.592 49.12 60.532 47.74 60.412 46.02C60.412 45.42 60.392 44.9 60.352 44.46C60.312 43.98 60.272 43.58 60.232 43.26L60.112 40.68C60.112 40 60.072 39.14 59.992 38.1L59.932 36.24C59.932 34.72 59.912 33.54 59.872 32.7C59.832 31.86 59.812 30.1 59.812 27.42C59.812 24.9 59.832 22.3 59.872 19.62C59.912 16.94 60.032 14.4 60.232 12C60.232 11.56 60.712 11.2 61.672 10.92C62.272 10.84 63.272 10.8 64.672 10.8C67.912 10.8 70.292 10.74 71.812 10.62C76.532 10.54 80.092 10.5 82.492 10.5H85.132C88.412 10.58 90.932 10.7 92.692 10.86C93.332 10.86 93.792 11.62 94.072 13.14C94.192 13.42 94.332 14.14 94.492 15.3C94.612 15.9 94.772 16.64 94.972 17.52C95.012 17.76 95.012 18 94.972 18.24C94.972 18.44 94.972 18.56 94.972 18.6C94.932 19 94.712 19.2 94.312 19.2C94.152 19.16 93.912 19.14 93.592 19.14C91.912 19.14 89.852 19.28 87.412 19.56L84.232 19.8C82.912 19.96 81.872 20.06 81.112 20.1C80.992 20.1 80.832 20.34 80.632 20.82C80.472 21.34 80.292 22.54 80.092 24.42L79.972 25.92C79.972 26.44 80.032 26.78 80.152 26.94C80.272 27.06 80.532 27.12 80.932 27.12H86.272C87.832 27.12 89.612 27.22 91.612 27.42H92.332C92.852 27.54 93.172 27.74 93.292 28.02C93.452 28.26 93.552 28.52 93.592 28.8L93.832 34.14V34.32C93.832 35 93.112 35.4 91.672 35.52C90.832 35.72 89.232 35.82 86.872 35.82C84.832 35.82 83.512 35.8 82.912 35.76C81.752 35.76 81.052 35.78 80.812 35.82C80.372 35.94 80.092 36.18 79.972 36.54C79.852 36.86 79.792 37.42 79.792 38.22C79.792 38.74 79.752 39.48 79.672 40.44C79.632 40.92 79.612 41.68 79.612 42.72C82.212 42.72 84.132 42.68 85.372 42.6C86.732 42.48 88.652 42.42 91.132 42.42C91.292 42.42 91.452 42.56 91.612 42.84C91.812 43.24 92.132 44.14 92.572 45.54C92.812 46.34 93.052 47.34 93.292 48.54C93.372 48.82 93.412 49.12 93.412 49.44C93.412 50.28 93.012 50.7 92.212 50.7C91.172 50.7 89.772 50.74 88.012 50.82C87.092 50.9 85.652 50.94 83.692 50.94C79.492 50.94 76.332 50.96 74.212 51H64.732ZM124.214 52.44C119.454 52.44 115.694 52.06 112.934 51.3C109.094 50.3 106.174 48.44 104.174 45.72C101.854 42.48 100.694 37.98 100.694 32.22C100.694 28.1 101.154 24.6 102.074 21.72C102.994 18.84 104.414 16.48 106.334 14.64C108.254 12.8 110.714 11.46 113.714 10.62C116.754 9.74 120.454 9.3 124.814 9.3C128.214 9.3 131.414 9.82 134.414 10.86C138.094 12.18 140.954 14.2 142.994 16.92C145.514 20.16 146.774 24.42 146.774 29.7C146.774 35.86 145.854 40.66 144.014 44.1C142.174 47.26 139.514 49.5 136.034 50.82C133.194 51.9 129.254 52.44 124.214 52.44ZM123.734 46.62C124.214 46.62 124.594 46.32 124.874 45.72C125.474 44.44 125.894 42.42 126.134 39.66C126.374 37.14 126.494 34.76 126.494 32.52V30.12V28.62C126.494 26.86 126.374 24.72 126.134 22.2C125.894 19.48 125.474 17.42 124.874 16.02C124.554 15.34 124.174 15 123.734 15C122.854 15 122.214 15.84 121.814 17.52C121.414 19.84 121.214 21.94 121.214 23.82C121.094 25.42 121.034 27.92 121.034 31.32C121.034 33.6 121.094 35.48 121.214 36.96C121.214 38.84 121.414 41.02 121.814 43.5C122.214 45.58 122.854 46.62 123.734 46.62ZM154.896 50.94C154.216 50.94 153.776 50.5 153.576 49.62C153.376 49.18 153.276 48.38 153.276 47.22C153.276 43.74 153.236 40.64 153.156 37.92C153.036 34 152.976 29.86 152.976 25.5V12.3C152.976 11.94 153.136 11.6 153.456 11.28C153.816 10.92 154.176 10.74 154.536 10.74L161.436 10.8C162.716 10.84 164.396 10.86 166.476 10.86C169.476 10.86 171.796 10.84 173.436 10.8L175.656 10.74C178.056 10.66 180.036 10.62 181.596 10.62C184.116 10.62 186.516 10.98 188.796 11.7C191.476 12.5 193.656 13.88 195.336 15.84C197.216 17.96 198.156 20.82 198.156 24.42C198.156 30.5 196.616 34.9 193.536 37.62C190.816 40.18 186.756 41.46 181.356 41.46H173.136C173.176 42.38 173.196 43.36 173.196 44.4C173.196 44.76 173.176 45.2 173.136 45.72C173.136 46.2 173.136 46.86 173.136 47.7C173.136 49.02 172.856 49.86 172.296 50.22C171.856 50.58 171.036 50.76 169.836 50.76C168.076 50.76 166.856 50.78 166.176 50.82C163.416 50.82 161.216 50.86 159.576 50.94H154.896ZM176.376 34.26C177.216 34.26 177.836 33.46 178.236 31.86C178.556 30.78 178.796 29.18 178.956 27.06C179.036 25.9 179.076 24.6 179.076 23.16V22.5C179.076 21.86 178.976 20.9 178.776 19.62C178.616 18.9 178.436 18.34 178.236 17.94C178.036 17.5 177.776 17.14 177.456 16.86C177.136 16.5 176.776 16.32 176.376 16.32C176.176 16.32 175.996 16.4 175.836 16.56C175.716 16.72 175.596 16.92 175.476 17.16C175.036 17.88 174.636 19.48 174.276 21.96C174.156 22.68 174.056 23.76 173.976 25.2C173.776 27.4 173.676 30.34 173.676 34.02C173.676 34.02 173.696 34.04 173.736 34.08C173.776 34.12 173.856 34.16 173.976 34.2L174.696 34.26H176.376ZM222.808 51C218.688 51 215.688 50.98 213.808 50.94C212.088 50.94 210.768 50.92 209.848 50.88L204.928 50.82C204.568 50.82 204.228 50.66 203.908 50.34C203.588 50.02 203.428 49.68 203.428 49.32V36.12V30.36L203.368 25.44C203.368 23.8 203.408 21.74 203.488 19.26C203.488 18.74 203.548 17.4 203.668 15.24V13.86C203.668 12.74 203.888 11.84 204.328 11.16C204.528 10.8 204.848 10.62 205.288 10.62C207.248 10.62 209.388 10.66 211.708 10.74C212.028 10.78 212.488 10.8 213.088 10.8C214.408 10.8 215.388 10.82 216.028 10.86H219.268C219.428 10.86 219.888 10.86 220.648 10.86C221.448 10.86 222.068 10.96 222.508 11.16C223.228 11.56 223.588 12.48 223.588 13.92L223.528 14.4C223.528 14.52 223.488 14.82 223.408 15.3C223.288 15.9 223.228 16.34 223.228 16.62C223.228 17.06 223.288 17.62 223.408 18.3C223.488 18.78 223.528 19.1 223.528 19.26L223.588 19.62V28.02V31.92V35.64V36.36C223.588 36.68 223.768 36.88 224.128 36.96C224.248 37 224.508 37.02 224.908 37.02H229.288C230.368 36.98 232.008 36.96 234.208 36.96C234.648 36.96 235.008 37.1 235.288 37.38C235.568 37.62 235.708 37.88 235.708 38.16V49.62V49.74C235.708 50.06 235.548 50.32 235.228 50.52C234.868 50.68 234.448 50.78 233.968 50.82C233.448 50.94 232.628 51 231.508 51H222.808ZM245.728 51C245.528 51 245.228 50.98 244.828 50.94C244.428 50.86 243.948 50.8 243.388 50.76L242.128 50.46C241.928 50.42 241.768 50.38 241.648 50.34C241.568 50.26 241.548 50.2 241.588 50.16C241.588 49.12 241.528 47.74 241.408 46.02C241.408 45.42 241.388 44.9 241.348 44.46C241.308 43.98 241.268 43.58 241.228 43.26L241.108 40.68C241.108 40 241.068 39.14 240.988 38.1L240.928 36.24C240.928 34.72 240.908 33.54 240.868 32.7C240.828 31.86 240.808 30.1 240.808 27.42C240.808 24.9 240.828 22.3 240.868 19.62C240.908 16.94 241.028 14.4 241.228 12C241.228 11.56 241.708 11.2 242.668 10.92C243.268 10.84 244.268 10.8 245.668 10.8C248.908 10.8 251.288 10.74 252.808 10.62C257.528 10.54 261.088 10.5 263.488 10.5H266.128C269.408 10.58 271.928 10.7 273.688 10.86C274.328 10.86 274.788 11.62 275.068 13.14C275.188 13.42 275.328 14.14 275.488 15.3C275.608 15.9 275.768 16.64 275.968 17.52C276.008 17.76 276.008 18 275.968 18.24C275.968 18.44 275.968 18.56 275.968 18.6C275.928 19 275.708 19.2 275.308 19.2C275.148 19.16 274.908 19.14 274.588 19.14C272.908 19.14 270.848 19.28 268.408 19.56L265.228 19.8C263.908 19.96 262.868 20.06 262.108 20.1C261.988 20.1 261.828 20.34 261.628 20.82C261.468 21.34 261.288 22.54 261.088 24.42L260.968 25.92C260.968 26.44 261.028 26.78 261.148 26.94C261.268 27.06 261.528 27.12 261.928 27.12H267.268C268.828 27.12 270.608 27.22 272.608 27.42H273.328C273.848 27.54 274.168 27.74 274.288 28.02C274.448 28.26 274.548 28.52 274.588 28.8L274.828 34.14V34.32C274.828 35 274.108 35.4 272.668 35.52C271.828 35.72 270.228 35.82 267.868 35.82C265.828 35.82 264.508 35.8 263.908 35.76C262.748 35.76 262.048 35.78 261.808 35.82C261.368 35.94 261.088 36.18 260.968 36.54C260.848 36.86 260.788 37.42 260.788 38.22C260.788 38.74 260.748 39.48 260.668 40.44C260.628 40.92 260.608 41.68 260.608 42.72C263.208 42.72 265.128 42.68 266.368 42.6C267.728 42.48 269.648 42.42 272.128 42.42C272.288 42.42 272.448 42.56 272.608 42.84C272.808 43.24 273.128 44.14 273.568 45.54C273.808 46.34 274.048 47.34 274.288 48.54C274.368 48.82 274.408 49.12 274.408 49.44C274.408 50.28 274.008 50.7 273.208 50.7C272.168 50.7 270.768 50.74 269.008 50.82C268.088 50.9 266.648 50.94 264.688 50.94C260.488 50.94 257.328 50.96 255.208 51H245.728Z" fill="white"/>
</g>
<defs>
<clipPath id="clip0">
<rect width="279" height="60" fill="white"/>
</clipPath>
</defs>
</svg>
