<svg width="126" height="60" viewBox="0 0 126 60" fill="none" xmlns="http://www.w3.org/2000/svg">
<g id="w2" clip-path="url(#clip0)">
<path id="w3" d="M38.34 41.7H20.1L16.74 51H10.98L26.1 9.42H32.4L47.46 51H41.7L38.34 41.7ZM36.78 37.26L29.22 16.14L21.66 37.26H36.78ZM76.0697 51L66.1097 33.9H59.5097V51H54.0497V9.18H67.5497C70.7097 9.18 73.3697 9.72 75.5297 10.8C77.7297 11.88 79.3697 13.34 80.4497 15.18C81.5297 17.02 82.0697 19.12 82.0697 21.48C82.0697 24.36 81.2297 26.9 79.5497 29.1C77.9097 31.3 75.4297 32.76 72.1097 33.48L82.6097 51H76.0697ZM59.5097 29.52H67.5497C70.5097 29.52 72.7297 28.8 74.2097 27.36C75.6897 25.88 76.4297 23.92 76.4297 21.48C76.4297 19 75.6897 17.08 74.2097 15.72C72.7697 14.36 70.5497 13.68 67.5497 13.68H59.5097V29.52ZM96.0136 13.62V27.6H111.254V32.1H96.0136V46.5H113.054V51H90.5536V9.12H113.054V13.62H96.0136Z" fill="white"/>
</g>
<defs>
<clipPath id="clip0">
<rect width="126" height="60" fill="white"/>
</clipPath>
</defs>
</svg>
