<svg width="207" height="60" viewBox="0 0 207 60" fill="none" xmlns="http://www.w3.org/2000/svg">
<g id="w4" clip-path="url(#clip0)">
<path id="w4_2" d="M23.8809 22.6074H38.7051V50H37.0132C32.3582 50 29.0103 49.1854 26.9692 47.5562C24.9103 45.909 23.8809 43.1877 23.8809 39.3921V22.6074ZM4.49121 36.626C4.49121 34.6566 4.75081 32.8304 5.27002 31.1475C5.78923 29.4466 6.59489 27.9606 7.68701 26.6895C10.0503 23.9681 13.4341 22.6074 17.8384 22.6074H19.9062V50H18.5098C13.998 50 10.5068 48.7646 8.03613 46.2939C5.67285 43.9307 4.49121 40.708 4.49121 36.626ZM48.3462 32.9199C48.2925 32.7051 48.2477 32.4723 48.2119 32.2217L48.1045 31.4697C48.0329 30.9326 47.9971 30.306 47.9971 29.5898C47.9971 28.8558 48.1582 28.0143 48.4805 27.0654C48.8206 26.1165 49.3667 25.293 50.1187 24.5947C51.73 23.0908 54.2186 22.3389 57.5845 22.3389L77.5381 39.8755C77.7171 40.52 77.8066 41.3794 77.8066 42.4536C77.8066 43.5099 77.6276 44.5215 77.2695 45.4883C76.9115 46.4372 76.3385 47.2607 75.5508 47.959C73.8678 49.4987 71.415 50.2686 68.1924 50.2686L48.5342 32.9199H48.3462ZM77.9946 22.6074C78.5317 23.431 78.8003 24.5589 78.8003 25.9912C78.8003 28.641 77.8066 30.6193 75.8193 31.9263L65.0503 22.6074H77.9946ZM47.5674 50C47.0303 49.1764 46.7617 48.0485 46.7617 46.6162C46.7617 43.9844 47.7464 42.015 49.7158 40.708L60.5117 50H47.5674ZM106.273 22.6074H121.098V50H119.406C114.751 50 111.403 49.1854 109.362 47.5562C107.303 45.909 106.273 43.1877 106.273 39.3921V22.6074ZM86.8838 36.626C86.8838 34.6566 87.1434 32.8304 87.6626 31.1475C88.1818 29.4466 88.9875 27.9606 90.0796 26.6895C92.4429 23.9681 95.8267 22.6074 100.231 22.6074H102.299V50H100.902C96.3906 50 92.8994 48.7646 90.4287 46.2939C88.0654 43.9307 86.8838 40.708 86.8838 36.626ZM147.47 22.6074H162.294V50H160.602C155.947 50 152.599 49.1854 150.558 47.5562C148.499 45.909 147.47 43.1877 147.47 39.3921V22.6074ZM128.08 36.626C128.08 34.6566 128.34 32.8304 128.859 31.1475C129.378 29.4466 130.184 27.9606 131.276 26.6895C133.639 23.9681 137.023 22.6074 141.427 22.6074H143.495V50H142.099C137.587 50 134.096 48.7646 131.625 46.2939C129.262 43.9307 128.08 40.708 128.08 36.626ZM169.25 8.91113H183.698V49.9463H169.25V8.91113ZM188.156 22.6074H190.224C194.628 22.6074 197.994 23.9681 200.321 26.6895C202.452 29.1781 203.517 32.4544 203.517 36.5186C203.517 40.6543 202.344 43.9128 199.999 46.2939C197.564 48.7646 194.082 50 189.552 50H188.156V22.6074Z" fill="white"/>
</g>
<defs>
<clipPath id="clip0">
<rect width="207" height="60" fill="white"/>
</clipPath>
</defs>
</svg>
