<svg width="196" height="60" viewBox="0 0 196 60" fill="none" xmlns="http://www.w3.org/2000/svg">
<g id="w5" clip-path="url(#clip0)">
<path id="w5_2" d="M58.18 9.18L46.06 51H39.94L30.22 17.34L20.14 51L14.08 51.06L2.38 9.18H8.2L17.32 44.64L27.4 9.18H33.52L43.12 44.52L52.3 9.18H58.18ZM69.6152 13.62V27.6H84.8552V32.1H69.6152V46.5H86.6552V51H64.1552V9.12H86.6552V13.62H69.6152ZM123.933 9.18C128.493 9.18 132.433 10.04 135.753 11.76C139.113 13.44 141.673 15.86 143.433 19.02C145.233 22.18 146.133 25.9 146.133 30.18C146.133 34.46 145.233 38.18 143.433 41.34C141.673 44.46 139.113 46.86 135.753 48.54C132.433 50.18 128.493 51 123.933 51H110.913V9.18H123.933ZM123.933 46.5C129.333 46.5 133.453 45.08 136.293 42.24C139.133 39.36 140.553 35.34 140.553 30.18C140.553 24.98 139.113 20.92 136.233 18C133.393 15.08 129.293 13.62 123.933 13.62H116.373V46.5H123.933ZM172.295 51.42C168.415 51.42 164.875 50.52 161.675 48.72C158.475 46.88 155.935 44.34 154.055 41.1C152.215 37.82 151.295 34.14 151.295 30.06C151.295 25.98 152.215 22.32 154.055 19.08C155.935 15.8 158.475 13.26 161.675 11.46C164.875 9.62 168.415 8.7 172.295 8.7C176.215 8.7 179.775 9.62 182.975 11.46C186.175 13.26 188.695 15.78 190.535 19.02C192.375 22.26 193.295 25.94 193.295 30.06C193.295 34.18 192.375 37.86 190.535 41.1C188.695 44.34 186.175 46.88 182.975 48.72C179.775 50.52 176.215 51.42 172.295 51.42ZM172.295 46.68C175.215 46.68 177.835 46 180.155 44.64C182.515 43.28 184.355 41.34 185.675 38.82C187.035 36.3 187.715 33.38 187.715 30.06C187.715 26.7 187.035 23.78 185.675 21.3C184.355 18.78 182.535 16.84 180.215 15.48C177.895 14.12 175.255 13.44 172.295 13.44C169.335 13.44 166.695 14.12 164.375 15.48C162.055 16.84 160.215 18.78 158.855 21.3C157.535 23.78 156.875 26.7 156.875 30.06C156.875 33.38 157.535 36.3 158.855 38.82C160.215 41.34 162.055 43.28 164.375 44.64C166.735 46 169.375 46.68 172.295 46.68Z" fill="white"/>
</g>
<defs>
<clipPath id="clip0">
<rect width="196" height="60" fill="white"/>
</clipPath>
</defs>
</svg>
