<svg width="242" height="60" viewBox="0 0 242 60" fill="none" xmlns="http://www.w3.org/2000/svg">
<g id="w6" clip-path="url(#clip0)">
<path id="w6_2" d="M23.08 8.64H20.5C20.42 8.64 20.36 8.64 20.32 8.64V43.62C20.36 44.66 20.74 45.56 21.46 46.32C22.22 47.04 23.12 47.4 24.16 47.4H24.94V48H6.7V47.4H7.48C8.92 47.4 10.02 46.78 10.78 45.54C11.1 44.98 11.28 44.36 11.32 43.68V10.38C11.28 9.34 10.88 8.46 10.12 7.74C9.4 6.98 8.52 6.6 7.48 6.6H6.7V6H27.28C31.16 6 34.44 6.84 37.12 8.52C38.48 9.36 39.56 10.54 40.36 12.06C41.16 13.54 41.56 15.5 41.56 17.94C41.56 20.34 40.72 22.66 39.04 24.9C37.36 27.14 34.92 28.42 31.72 28.74C34.04 29.5 36.08 31.26 37.84 34.02C42.16 40.94 45.36 45.06 47.44 46.38C48.48 47.02 49.78 47.36 51.34 47.4V48H45.46C41.98 48 39.08 47.54 36.76 46.62C34.48 45.7 32.68 44.08 31.36 41.76C30.6 40.44 28.94 37.02 26.38 31.5C25.26 29.06 23.9 27.72 22.3 27.48V26.88H24.16C25.96 26.88 27.54 26.34 28.9 25.26C30.3 24.18 31.24 22.42 31.72 19.98C31.88 19.14 31.96 18.48 31.96 18C31.96 14.72 31.3 12.36 29.98 10.92C28.66 9.44 26.96 8.68 24.88 8.64C24.48 8.64 23.88 8.64 23.08 8.64ZM51.4211 47.4C52.4611 47.4 53.3411 47.04 54.0611 46.32C54.8211 45.56 55.2211 44.66 55.2611 43.62V10.2C55.1811 9.16 54.8811 8.4 54.3611 7.92C53.4011 7.04 52.4211 6.6 51.4211 6.6H50.6411V6H73.6211C75.5811 6 77.2011 5.86 78.4811 5.58C79.7611 5.26 80.5411 5.04 80.8211 4.92V15.42L80.2211 15.36V14.7C80.2211 12.22 79.3011 10.46 77.4611 9.42C76.5811 8.9 75.5411 8.62 74.3411 8.58H64.2611V26.04H72.1811C73.6611 26 74.8811 25.5 75.8411 24.54C76.8011 23.54 77.2811 22.32 77.2811 20.88V20.34H77.8811V34.2H77.2811V33.72C77.2811 32.24 76.8011 31.02 75.8411 30.06C74.9211 29.1 73.7411 28.6 72.3011 28.56H64.2611V45.42H72.1211C75.0411 45.42 77.4811 44.58 79.4411 42.9C81.4411 41.22 82.9211 38.84 83.8811 35.76H84.4811L81.7211 48H50.6411V47.4H51.4211ZM130.253 47.4H130.793V48H111.653V47.4H112.193C113.073 47.4 113.713 47.14 114.113 46.62C114.553 46.06 114.773 45.54 114.773 45.06C114.773 44.58 114.673 44.1 114.473 43.62L111.533 36.24H97.4927L94.3727 43.62C94.1727 44.14 94.0727 44.64 94.0727 45.12C94.0727 45.56 94.2927 46.06 94.7327 46.62C95.1727 47.14 95.8327 47.4 96.7127 47.4H97.1927V48H84.3527V47.4H84.8927C85.8127 47.4 86.7327 47.12 87.6527 46.56C88.5727 46 89.3327 45.16 89.9327 44.04L103.793 12.66C105.673 8.7 106.673 6.08 106.793 4.8H107.333L125.153 43.92C125.753 45.08 126.513 45.96 127.433 46.56C128.353 47.12 129.293 47.4 130.253 47.4ZM98.5127 33.72H110.513L104.693 18.96L98.5127 33.72ZM132.222 47.4C133.262 47.4 134.142 47.04 134.862 46.32C135.622 45.56 136.022 44.66 136.062 43.62V10.38C136.022 9.34 135.622 8.46 134.862 7.74C134.142 6.98 133.262 6.6 132.222 6.6H131.442V6H149.682L149.622 6.6H148.902C147.862 6.6 146.962 6.98 146.202 7.74C145.442 8.46 145.062 9.34 145.062 10.38V45.42H152.922C155.842 45.42 158.282 44.58 160.242 42.9C162.242 41.22 163.722 38.84 164.682 35.76H165.282L162.522 48H131.442V47.4H132.222ZM168.843 47.4C169.883 47.4 170.763 47.04 171.483 46.32C172.243 45.56 172.643 44.66 172.683 43.62V10.38C172.643 9.34 172.243 8.46 171.483 7.74C170.763 6.98 169.883 6.6 168.843 6.6H168.063V6H186.303L186.243 6.6H185.523C184.483 6.6 183.583 6.98 182.823 7.74C182.063 8.46 181.683 9.34 181.683 10.38V45.42H189.543C192.463 45.42 194.903 44.58 196.863 42.9C198.863 41.22 200.343 38.84 201.303 35.76H201.903L199.143 48H168.063V47.4H168.843ZM240.932 6.6H240.092C238.892 6.6 237.752 6.94 236.672 7.62C235.592 8.3 234.732 9.12 234.092 10.08L222.272 28.92V43.62C222.272 44.66 222.652 45.56 223.412 46.32C224.172 47.04 225.072 47.4 226.112 47.4H226.832L226.892 48H208.652V47.4H209.432C210.472 47.4 211.352 47.04 212.072 46.32C212.832 45.6 213.232 44.72 213.272 43.68V28.86L201.812 10.02C201.212 9.06 200.352 8.26 199.232 7.62C198.152 6.94 197.032 6.6 195.872 6.6H195.032V6H214.892V6.6H214.112C213.232 6.6 212.552 7 212.072 7.8C211.832 8.24 211.712 8.68 211.712 9.12C211.712 9.52 211.812 9.92 212.012 10.32L220.592 25.92L229.532 10.32C229.732 9.92 229.832 9.52 229.832 9.12C229.832 8.68 229.692 8.26 229.412 7.86C228.932 7.02 228.252 6.6 227.372 6.6H226.652V6H240.932V6.6Z" fill="white"/>
</g>
<defs>
<clipPath id="clip0">
<rect width="242" height="60" fill="white"/>
</clipPath>
</defs>
</svg>
