<svg width="195" height="60" viewBox="0 0 195 60" fill="none" xmlns="http://www.w3.org/2000/svg">
<g id="w7" clip-path="url(#clip0)">
<path id="w7_2" d="M31.18 52.44C28.54 52.44 26.34 52.32 24.58 52.08C22.3 51.76 20.24 51.18 18.4 50.34C18.16 50.22 17.8 50.04 17.32 49.8C16.88 49.52 16.5 49.26 16.18 49.02C14.86 47.9 13.78 46.64 12.94 45.24C12.26 44.52 11.64 43.52 11.08 42.24C10 39.44 9.46 36.1 9.46 32.22C9.46 27.66 10.4 23.66 12.28 20.22C13.92 16.94 16.1 14.38 18.82 12.54C21.58 10.66 24.7 9.6 28.18 9.36L28.9 9.3H29.68C32.8 9.3 36.16 9.94 39.76 11.22C40.08 11.38 40.78 11.7 41.86 12.18C42.94 12.66 43.94 13.2 44.86 13.8L43.78 21.6L40.24 20.7C38.96 20.38 37.76 20.22 36.64 20.22C34.4 20.22 32.72 21.06 31.6 22.74C30.4 24.5 29.8 27.36 29.8 31.32C29.8 32.6 29.86 33.5 29.98 34.02C30.14 36.54 30.7 38.4 31.66 39.6C32.58 40.64 33.68 41.16 34.96 41.16C36.16 41.16 37.5 40.78 38.98 40.02C40.26 39.42 41.66 38.6 43.18 37.56L43.78 47.4C42.22 48.84 40.22 50.06 37.78 51.06C35.46 51.98 33.26 52.44 31.18 52.44ZM73.8269 52.44C69.0669 52.44 65.3069 52.06 62.5469 51.3C58.7069 50.3 55.7869 48.44 53.7869 45.72C51.4669 42.48 50.3069 37.98 50.3069 32.22C50.3069 28.1 50.7669 24.6 51.6869 21.72C52.6069 18.84 54.0269 16.48 55.9469 14.64C57.8669 12.8 60.3269 11.46 63.3269 10.62C66.3669 9.74 70.0669 9.3 74.4269 9.3C77.8269 9.3 81.0269 9.82 84.0269 10.86C87.7069 12.18 90.5669 14.2 92.6069 16.92C95.1269 20.16 96.3869 24.42 96.3869 29.7C96.3869 35.86 95.4669 40.66 93.6269 44.1C91.7869 47.26 89.1269 49.5 85.6469 50.82C82.8069 51.9 78.8669 52.44 73.8269 52.44ZM73.3469 46.62C73.8269 46.62 74.2069 46.32 74.4869 45.72C75.0869 44.44 75.5069 42.42 75.7469 39.66C75.9869 37.14 76.1069 34.76 76.1069 32.52V30.12V28.62C76.1069 26.86 75.9869 24.72 75.7469 22.2C75.5069 19.48 75.0869 17.42 74.4869 16.02C74.1669 15.34 73.7869 15 73.3469 15C72.4669 15 71.8269 15.84 71.4269 17.52C71.0269 19.84 70.8269 21.94 70.8269 23.82C70.7069 25.42 70.6469 27.92 70.6469 31.32C70.6469 33.6 70.7069 35.48 70.8269 36.96C70.8269 38.84 71.0269 41.02 71.4269 43.5C71.8269 45.58 72.4669 46.62 73.3469 46.62ZM125.389 52.44C120.629 52.44 116.869 52.06 114.109 51.3C110.269 50.3 107.349 48.44 105.349 45.72C103.029 42.48 101.869 37.98 101.869 32.22C101.869 28.1 102.329 24.6 103.249 21.72C104.169 18.84 105.589 16.48 107.509 14.64C109.429 12.8 111.889 11.46 114.889 10.62C117.929 9.74 121.629 9.3 125.989 9.3C129.389 9.3 132.589 9.82 135.589 10.86C139.269 12.18 142.129 14.2 144.169 16.92C146.689 20.16 147.949 24.42 147.949 29.7C147.949 35.86 147.029 40.66 145.189 44.1C143.349 47.26 140.689 49.5 137.209 50.82C134.369 51.9 130.429 52.44 125.389 52.44ZM124.909 46.62C125.389 46.62 125.769 46.32 126.049 45.72C126.649 44.44 127.069 42.42 127.309 39.66C127.549 37.14 127.669 34.76 127.669 32.52V30.12V28.62C127.669 26.86 127.549 24.72 127.309 22.2C127.069 19.48 126.649 17.42 126.049 16.02C125.729 15.34 125.349 15 124.909 15C124.029 15 123.389 15.84 122.989 17.52C122.589 19.84 122.389 21.94 122.389 23.82C122.269 25.42 122.209 27.92 122.209 31.32C122.209 33.6 122.269 35.48 122.389 36.96C122.389 38.84 122.589 41.02 122.989 43.5C123.389 45.58 124.029 46.62 124.909 46.62ZM173.652 51C169.532 51 166.532 50.98 164.652 50.94C162.932 50.94 161.612 50.92 160.692 50.88L155.772 50.82C155.412 50.82 155.072 50.66 154.752 50.34C154.432 50.02 154.272 49.68 154.272 49.32V36.12V30.36L154.212 25.44C154.212 23.8 154.252 21.74 154.332 19.26C154.332 18.74 154.392 17.4 154.512 15.24V13.86C154.512 12.74 154.732 11.84 155.172 11.16C155.372 10.8 155.692 10.62 156.132 10.62C158.092 10.62 160.232 10.66 162.552 10.74C162.872 10.78 163.332 10.8 163.932 10.8C165.252 10.8 166.232 10.82 166.872 10.86H170.112C170.272 10.86 170.732 10.86 171.492 10.86C172.292 10.86 172.912 10.96 173.352 11.16C174.072 11.56 174.432 12.48 174.432 13.92L174.372 14.4C174.372 14.52 174.332 14.82 174.252 15.3C174.132 15.9 174.072 16.34 174.072 16.62C174.072 17.06 174.132 17.62 174.252 18.3C174.332 18.78 174.372 19.1 174.372 19.26L174.432 19.62V28.02V31.92V35.64V36.36C174.432 36.68 174.612 36.88 174.972 36.96C175.092 37 175.352 37.02 175.752 37.02H180.132C181.212 36.98 182.852 36.96 185.052 36.96C185.492 36.96 185.852 37.1 186.132 37.38C186.412 37.62 186.552 37.88 186.552 38.16V49.62V49.74C186.552 50.06 186.392 50.32 186.072 50.52C185.712 50.68 185.292 50.78 184.812 50.82C184.292 50.94 183.472 51 182.352 51H173.652Z" fill="white"/>
</g>
<defs>
<clipPath id="clip0">
<rect width="195" height="60" fill="white"/>
</clipPath>
</defs>
</svg>
