<svg width="405" height="60" viewBox="0 0 405 60" fill="none" xmlns="http://www.w3.org/2000/svg">
<g id="w8" clip-path="url(#clip0)">
<path id="w8_2" d="M23.64 52.44C20.8 52.44 18.52 52.36 16.8 52.2C15.12 52.08 13.78 51.84 12.78 51.48C11.74 51.04 10.98 50.44 10.5 49.68C10.02 48.92 9.78 47.9 9.78 46.62V45.12C9.82 44.72 9.84 44.12 9.84 43.32C9.88 42.92 9.9 42.32 9.9 41.52C9.94 41.12 9.96 40.7 9.96 40.26C9.96 38.74 9.92 36.46 9.84 33.42L9.78 29.82C9.58 26.98 9.48 23.54 9.48 19.5V17.46V15.6C9.48 14.2 9.54 13.18 9.66 12.54C9.74 12.34 9.78 12.16 9.78 12C9.82 11.84 9.84 11.72 9.84 11.64C9.88 10.92 10.18 10.38 10.74 10.02C11.06 9.9 11.5 9.84 12.06 9.84C12.42 9.84 12.8 9.82 13.2 9.78C13.64 9.74 14.1 9.72 14.58 9.72C15.22 9.72 16.22 9.68 17.58 9.6C17.94 9.56 18.36 9.52 18.84 9.48C19.36 9.44 19.94 9.42 20.58 9.42C21.86 9.34 22.76 9.3 23.28 9.3C26.56 9.3 30.4 9.62 34.8 10.26C37.88 10.62 40.28 11 42 11.4C44.92 12.12 47.14 13.06 48.66 14.22C50.62 15.9 51.6 18.04 51.6 20.64C51.6 24 50.22 26.54 47.46 28.26C47.26 28.38 47.08 28.48 46.92 28.56C46.76 28.6 46.6 28.66 46.44 28.74C45.72 28.94 45.1 29.2 44.58 29.52C44.5 29.56 44.4 29.64 44.28 29.76C44.16 29.84 44.06 29.96 43.98 30.12C43.98 30.12 43.98 30.14 43.98 30.18C44.02 30.18 44.04 30.2 44.04 30.24C44.04 30.24 44.08 30.28 44.16 30.36C46.92 31.48 49.16 32.86 50.88 34.5C52.16 35.94 52.8 37.44 52.8 39C52.8 41.2 51.46 43.42 48.78 45.66C46.14 47.74 42.88 49.32 39 50.4C36.12 51.2 33.28 51.76 30.48 52.08C28.36 52.32 26.08 52.44 23.64 52.44ZM30.78 24.42C30.98 24.42 31.2 24.36 31.44 24.24C32.48 23.88 33.46 23.44 34.38 22.92C34.94 22.68 35.48 22.44 36 22.2C36.56 21.92 36.94 21.74 37.14 21.66L37.68 21.42L38.16 21.3C38.32 21.3 38.4 21.2 38.4 21C38.4 20.32 37.66 19.86 36.18 19.62C35.3 19.42 34.2 19.32 32.88 19.32C31.68 19.32 30.92 19.78 30.6 20.7C30.4 21.18 30.3 21.78 30.3 22.5C30.3 23.22 30.3 23.66 30.3 23.82V24.12C30.3 24.32 30.46 24.42 30.78 24.42ZM29.88 41.76C29.92 41.76 29.94 41.74 29.94 41.7C32.74 40.34 35.92 38.86 39.48 37.26C39.64 37.1 39.74 37.02 39.78 37.02L40.08 36.84C38.4 36.32 36.74 35.98 35.1 35.82C33.02 35.74 31.3 35.7 29.94 35.7C29.5 35.7 29.28 35.98 29.28 36.54V41.34C29.28 41.62 29.44 41.76 29.76 41.76H29.88ZM90.9188 53.04C90.7588 53.04 90.6188 53.02 90.4987 52.98C89.8988 52.62 89.3988 52.22 88.9988 51.78C88.8788 51.58 88.7988 51.48 88.7588 51.48C88.7188 51.4 88.6588 51.36 88.5788 51.36L88.4588 51.3C88.2988 51.14 88.2188 51.06 88.2188 51.06L83.1188 43.5C82.8788 42.98 82.5388 42.42 82.0988 41.82C81.8188 41.54 81.5788 41.24 81.3788 40.92C81.2188 40.68 81.0588 40.56 80.8988 40.56C80.7788 40.56 80.6788 40.62 80.5988 40.74C80.5588 40.86 80.5188 41.02 80.4788 41.22C80.3588 42.3 80.2988 43.76 80.2988 45.6C80.2988 47.36 80.1988 48.78 79.9988 49.86C79.8788 50.38 79.6988 50.64 79.4588 50.64H79.0988C79.0188 50.6 78.9388 50.58 78.8588 50.58C78.8188 50.54 78.7988 50.52 78.7988 50.52C77.3988 50.64 75.2988 50.78 72.4988 50.94C69.7788 51.1 67.6988 51.18 66.2588 51.18C65.8588 51.18 65.5388 51.14 65.2988 51.06H63.9788H62.8988H62.3588L60.1988 50.34L60.0188 49.86C60.0188 49.82 59.9988 49.74 59.9588 49.62C59.9588 49.5 59.9588 49.34 59.9588 49.14C59.9588 48.9 59.9188 48.46 59.8388 47.82C59.6388 45.38 59.5588 44.42 59.5988 44.94C59.5188 43.9 59.3788 42.1 59.1787 39.54L58.9988 37.32C58.9988 36.6 58.9788 35.96 58.9388 35.4C58.8988 34.84 58.8588 34.36 58.8188 33.96L58.6988 32.64C58.5788 31 58.5188 29.46 58.5188 28.02C58.5188 27.98 58.5188 27.92 58.5188 27.84C58.5588 27.76 58.5788 27.6 58.5788 27.36C58.6588 27.12 58.6988 26.74 58.6988 26.22L58.7588 25.14L58.8188 24.42C58.8188 23.58 58.7788 22.36 58.6988 20.76C58.5388 19.76 58.4588 18.48 58.4588 16.92C58.4588 14.68 58.5988 13.04 58.8788 12C59.2388 10.56 59.8388 9.84 60.6788 9.84C65.1988 9.84 69.7988 9.9 74.4788 10.02C75.5188 10.02 77.0788 10.06 79.1588 10.14L81.4988 10.2C84.6988 10.28 86.9188 10.32 88.1588 10.32C93.3188 10.56 97.2188 11.86 99.8588 14.22C101.059 15.22 101.939 16.42 102.499 17.82C103.099 19.22 103.399 20.72 103.399 22.32C103.399 24.16 103.059 25.86 102.379 27.42C101.819 28.66 101.019 29.8 99.9788 30.84C98.9788 31.84 97.8388 32.64 96.5588 33.24C96.7988 33.36 97.1188 33.62 97.5188 34.02C97.6788 34.22 97.9588 34.48 98.3588 34.8L99.1988 35.4C99.3188 35.6 99.4588 35.8 99.6188 36C99.7788 36.16 99.9388 36.34 100.099 36.54L102.919 40.02C104.199 41.66 105.019 42.86 105.379 43.62C105.659 44.14 105.799 44.54 105.799 44.82C105.799 45.22 105.639 45.58 105.319 45.9C104.999 46.22 104.519 46.62 103.879 47.1C103.399 47.46 102.839 47.8 102.199 48.12C101.599 48.44 101.139 48.74 100.819 49.02L98.5988 50.22C97.7988 50.66 96.9388 51.04 96.0188 51.36C95.9788 51.36 95.9188 51.38 95.8388 51.42C95.7988 51.46 95.7188 51.5 95.5988 51.54C95.3588 51.66 94.6988 51.88 93.6188 52.2C93.4188 52.32 93.0788 52.42 92.5988 52.5C92.4788 52.58 92.3388 52.64 92.1788 52.68C92.0188 52.72 91.8988 52.74 91.8188 52.74H91.5188C91.4788 52.94 91.3988 53.04 91.2788 53.04H91.0988H90.9188ZM81.0788 31.86C82.3188 31.86 83.2988 31.24 84.0188 30C84.6988 28.88 85.0788 27.6 85.1588 26.16C85.2388 25.32 85.2788 24.32 85.2788 23.16V22.5C85.2788 21.58 85.1188 20.62 84.7988 19.62C84.4788 18.34 83.8188 17.42 82.8188 16.86C82.3788 16.5 81.7988 16.32 81.0788 16.32C80.8788 16.32 80.7188 16.56 80.5988 17.04C80.2388 17.92 80.0388 19.32 79.9988 21.24C79.8388 22.04 79.7588 22.98 79.7588 24.06L79.6988 25.86C79.6188 28.18 79.5788 30.1 79.5788 31.62C79.5788 31.66 79.5988 31.7 79.6388 31.74C79.6788 31.78 79.7188 31.8 79.7588 31.8L80.1788 31.86H81.0788ZM111.982 51.06C111.462 51.06 111.102 50.66 110.902 49.86C110.862 49.74 110.842 49.54 110.842 49.26C110.842 48.86 110.922 48.26 111.082 47.46C111.162 46.94 111.222 46.54 111.262 46.26C111.342 45.94 111.402 45.7 111.442 45.54C112.642 39.9 113.822 34.94 114.982 30.66L119.182 11.7C119.182 11.62 119.242 11.5 119.362 11.34C119.482 11.18 119.622 11.08 119.782 11.04H120.082C120.082 11.08 120.142 11.1 120.262 11.1C120.742 11.1 121.282 11.04 121.882 10.92C122.482 10.8 123.022 10.74 123.502 10.74C124.382 10.74 125.202 10.8 125.962 10.92C126.322 10.92 126.722 10.94 127.162 10.98C127.602 11.02 128.062 11.04 128.542 11.04C128.702 11.04 128.882 11 129.082 10.92H130.162H131.542L132.982 10.86C133.262 10.82 133.602 10.8 134.002 10.8C134.322 10.8 134.482 10.78 134.482 10.74H135.442H137.482H140.002C142.242 10.74 143.722 10.78 144.442 10.86C144.562 10.86 144.722 10.88 144.922 10.92C145.162 10.92 145.302 10.96 145.342 11.04C145.622 11.04 145.902 11.02 146.182 10.98C146.462 10.94 146.722 10.92 146.962 10.92C147.522 10.8 148.062 10.74 148.582 10.74C148.822 10.74 149.062 10.8 149.302 10.92C149.542 11.04 149.802 11.1 150.082 11.1L150.382 11.04H150.562C150.682 11.12 150.802 11.24 150.922 11.4C151.082 11.52 151.162 11.62 151.162 11.7L155.362 30.66C156.642 35.34 157.802 40.3 158.842 45.54C158.842 45.78 158.922 46.04 159.082 46.32C159.122 46.6 159.182 46.98 159.262 47.46C159.342 47.94 159.382 48.34 159.382 48.66C159.422 48.82 159.442 49.04 159.442 49.32C159.442 49.88 159.322 50.34 159.082 50.7C158.922 50.94 158.682 51.06 158.362 51.06H157.582C156.982 51.06 156.522 51.04 156.202 51H154.642H153.142H151.942C151.622 51 151.462 50.98 151.462 50.94H147.682V50.82C147.522 50.74 147.322 50.7 147.082 50.7C147.082 50.7 147.062 50.72 147.022 50.76C147.022 50.76 147.002 50.78 146.962 50.82C146.962 50.9 146.922 50.94 146.842 50.94H146.662H146.182C145.982 50.86 145.582 50.82 144.982 50.82C143.782 50.74 142.842 50.7 142.162 50.7C141.922 50.34 141.662 49.62 141.382 48.54C141.142 47.46 140.882 46.26 140.602 44.94C140.522 44.3 140.442 43.86 140.362 43.62C139.522 43.78 138.422 43.86 137.062 43.86H135.202H133.462L133.042 45.78C132.522 48.42 132.102 50.06 131.782 50.7C131.622 50.7 131.422 50.74 131.182 50.82C131.102 50.86 131.022 50.9 130.942 50.94C130.902 50.94 130.882 50.94 130.882 50.94H130.642C130.402 50.94 130.222 50.9 130.102 50.82C130.022 50.74 129.922 50.7 129.802 50.7L127.102 50.82H126.142H125.242C125.082 50.9 124.882 50.94 124.642 50.94H124.402H118.882H118.342C117.902 50.98 117.002 51 115.642 51H114.082C113.762 51.04 113.302 51.06 112.702 51.06H111.982ZM139.702 36.36C139.422 34.4 139.282 33.42 139.282 33.42C139.162 32.86 138.962 31.8 138.682 30.24C138.602 29.84 138.402 28.76 138.082 27C137.762 25.08 137.602 24.12 137.602 24.12C137.482 23.32 137.362 22.62 137.242 22.02L137.182 21.24C137.062 21.04 137.002 20.86 137.002 20.7L136.942 20.34C136.902 20.42 136.882 20.54 136.882 20.7C136.882 20.86 136.842 20.96 136.762 21V21.24L136.642 22.02C136.602 22.3 136.542 22.62 136.462 22.98C136.422 23.3 136.362 23.66 136.282 24.06L135.982 25.74C135.542 28.26 135.282 29.72 135.202 30.12C135.162 30.56 135.062 31.22 134.902 32.1C134.822 32.38 134.742 32.8 134.662 33.36L134.182 36.12H137.242L137.662 36H137.782C138.262 36 138.622 36.04 138.862 36.12C139.022 36.12 139.162 36.16 139.282 36.24C139.442 36.28 139.582 36.32 139.702 36.36ZM173.84 51.18C173.44 51.18 173.1 51.14 172.82 51.06H171.62H170.66H170.12L167.42 50.4L167.24 49.92C167.2 49.92 167.18 49.7 167.18 49.26C167.1 48.06 167.06 46.68 167.06 45.12C167.06 44 167.02 43.1 166.94 42.42C166.94 41.3 166.92 40.46 166.88 39.9V37.8C166.68 35.96 166.56 33.94 166.52 31.74C166.48 29.54 166.46 27.4 166.46 25.32L166.58 19.2C166.62 18.52 166.64 17.48 166.64 16.08C166.64 14.68 166.62 13.64 166.58 12.96C166.46 12.04 166.72 11.36 167.36 10.92C167.76 10.72 168.46 10.62 169.46 10.62C170.94 10.62 172.84 10.58 175.16 10.5L176.48 10.38C178.88 10.22 180.38 10.14 180.98 10.14C181.54 10.14 181.94 10.16 182.18 10.2C182.74 10.24 183.12 10.32 183.32 10.44C183.52 10.56 183.7 10.76 183.86 11.04C184.06 11.32 184.2 11.54 184.28 11.7C184.76 12.34 185.24 13.02 185.72 13.74C186.44 14.82 187.02 15.66 187.46 16.26L191.42 22.32L193.34 25.2C193.34 24.16 193.38 23.34 193.46 22.74V17.16L193.64 12.9C193.68 12.58 193.72 12.36 193.76 12.24C193.8 12.12 193.86 12.04 193.94 12C194.02 11.92 194.08 11.86 194.12 11.82C194.6 11.42 195.08 11.12 195.56 10.92C195.96 10.84 196.28 10.8 196.52 10.8H199.94H200.66C200.98 10.84 201.54 10.86 202.34 10.86C203.22 10.86 203.92 10.88 204.44 10.92H206.48H208.16H208.88C209.92 10.92 210.62 11.08 210.98 11.4C211.42 11.72 211.64 12.42 211.64 13.5L211.58 14.1L211.52 15.06C211.48 15.3 211.46 15.62 211.46 16.02V16.74V17.22L211.58 17.82V19.74C211.54 20.42 211.52 21.58 211.52 23.22V27.66C211.48 28.7 211.46 30.16 211.46 32.04V35.52V37.56V47.04L211.22 49.32C211.06 50.24 210.74 50.8 210.26 51L209.24 51.06L208.22 51H205.52H201.98H198.32H197.42C196.62 51.08 195.84 50.98 195.08 50.7C194.72 50.54 194.32 50.28 193.88 49.92L187.76 41.34C187.76 41.3 187.32 40.56 186.44 39.12C186.12 38.64 185.82 38.22 185.54 37.86C185.46 37.7 185.36 37.58 185.24 37.5C185.16 37.38 185.1 37.32 185.06 37.32C184.7 37.32 184.52 37.48 184.52 37.8V39.12C184.48 39.52 184.46 40.18 184.46 41.1V43.44V45.72C184.38 46.2 184.34 46.8 184.34 47.52V48.72V49.62L184.4 49.92C184.4 50.24 184.24 50.44 183.92 50.52C183.72 50.68 183.4 50.72 182.96 50.64C181.6 50.72 180.52 50.8 179.72 50.88C179.24 50.92 178.4 50.98 177.2 51.06C176 51.14 174.88 51.18 173.84 51.18ZM229.643 51L220.463 50.94C219.783 50.94 219.343 50.5 219.143 49.62C218.943 49.06 218.843 48.26 218.843 47.22C218.843 43.74 218.803 40.64 218.723 37.92C218.603 34 218.543 29.86 218.543 25.5V12.3C218.543 11.94 218.703 11.6 219.022 11.28C219.383 10.92 219.743 10.74 220.103 10.74L227.063 10.8C228.383 10.84 230.043 10.86 232.043 10.86C235.043 10.86 237.383 10.84 239.063 10.8L241.283 10.74C243.763 10.66 245.723 10.62 247.163 10.62C249.643 10.62 252.043 11.1 254.363 12.06C257.083 13.1 259.263 14.88 260.903 17.4C262.863 20.44 263.843 24.18 263.843 28.62C263.843 32.82 263.363 36.32 262.403 39.12C261.483 41.92 260.003 44.22 257.963 46.02C255.923 47.78 253.243 49.06 249.923 49.86C246.643 50.66 242.523 51.06 237.563 51.06L229.643 51ZM238.043 43.02C238.203 43.06 238.423 43.08 238.703 43.08C239.023 43.08 239.463 43.04 240.023 42.96C240.223 42.92 240.363 42.88 240.443 42.84C240.563 42.76 240.663 42.7 240.743 42.66C241.223 42.1 241.683 40.92 242.123 39.12C242.403 38 242.743 36.08 243.143 33.36C243.343 31.04 243.443 29.04 243.443 27.36V26.22C243.443 25.18 243.343 23.62 243.143 21.54C242.863 19.46 242.463 18 241.943 17.16C241.503 16.6 241.103 16.32 240.743 16.32C240.383 16.32 240.063 16.36 239.783 16.44C239.503 16.52 239.323 16.58 239.243 16.62C239.163 16.66 238.983 16.76 238.703 16.92L238.643 24.12C238.643 24.76 238.603 25.72 238.523 27L238.463 28.44C238.383 30.44 238.343 31.88 238.343 32.76L238.043 43.02ZM271.846 51.06C271.566 51.06 271.306 50.96 271.066 50.76C270.826 50.52 270.646 50.22 270.526 49.86C270.366 49.14 270.246 48.34 270.166 47.46C270.126 47.18 270.106 46.8 270.106 46.32V45.54L270.166 38.1C270.166 35.58 270.226 33.1 270.346 30.66V11.7C270.346 11.3 270.606 11.1 271.126 11.1C273.886 11.1 275.946 11.08 277.306 11.04H283.306C283.426 11.04 283.526 11.02 283.606 10.98C283.686 10.94 283.786 10.92 283.906 10.92C284.426 10.84 285.146 10.82 286.066 10.86C286.746 10.86 287.466 10.92 288.226 11.04C288.466 11.2 288.646 11.24 288.766 11.16C288.846 11.16 289.006 11.12 289.246 11.04C289.846 11.04 290.306 11.08 290.626 11.16C290.986 11.24 291.266 11.42 291.466 11.7C291.666 12.06 291.826 12.5 291.946 13.02C291.986 13.42 292.006 14.26 292.006 15.54V27.24V28.14C291.966 28.46 291.946 29.18 291.946 30.3C291.946 31.5 291.906 32.44 291.826 33.12L291.766 35.82C291.726 36.42 291.706 37.18 291.706 38.1L291.646 39.06V42.9C291.646 45.3 291.546 47.34 291.346 49.02C291.346 49.58 291.206 50.14 290.926 50.7C290.206 50.7 289.166 50.74 287.806 50.82C287.166 50.82 286.746 50.86 286.546 50.94H285.946H285.766C285.486 50.94 285.346 50.9 285.346 50.82C285.026 50.74 284.846 50.7 284.806 50.7L284.326 50.94H278.806C278.766 50.98 278.446 51 277.846 51H275.566H273.346L271.846 51.06ZM306.555 51.18C306.155 51.18 305.815 51.14 305.535 51.06H304.335H303.375H302.835L300.135 50.4L299.955 49.92C299.915 49.92 299.895 49.7 299.895 49.26C299.815 48.06 299.775 46.68 299.775 45.12C299.775 44 299.735 43.1 299.655 42.42C299.655 41.3 299.635 40.46 299.595 39.9V37.8C299.395 35.96 299.275 33.94 299.235 31.74C299.195 29.54 299.175 27.4 299.175 25.32L299.295 19.2C299.335 18.52 299.355 17.48 299.355 16.08C299.355 14.68 299.335 13.64 299.295 12.96C299.175 12.04 299.435 11.36 300.075 10.92C300.475 10.72 301.175 10.62 302.175 10.62C303.655 10.62 305.555 10.58 307.875 10.5L309.195 10.38C311.595 10.22 313.095 10.14 313.695 10.14C314.255 10.14 314.655 10.16 314.895 10.2C315.455 10.24 315.835 10.32 316.035 10.44C316.235 10.56 316.415 10.76 316.575 11.04C316.775 11.32 316.915 11.54 316.995 11.7C317.475 12.34 317.955 13.02 318.435 13.74C319.155 14.82 319.735 15.66 320.175 16.26L324.135 22.32L326.055 25.2C326.055 24.16 326.095 23.34 326.175 22.74V17.16L326.355 12.9C326.395 12.58 326.435 12.36 326.475 12.24C326.515 12.12 326.575 12.04 326.655 12C326.735 11.92 326.795 11.86 326.835 11.82C327.315 11.42 327.795 11.12 328.275 10.92C328.675 10.84 328.995 10.8 329.235 10.8H332.655H333.375C333.695 10.84 334.255 10.86 335.055 10.86C335.935 10.86 336.635 10.88 337.155 10.92H339.195H340.875H341.595C342.635 10.92 343.335 11.08 343.695 11.4C344.135 11.72 344.355 12.42 344.355 13.5L344.295 14.1L344.235 15.06C344.195 15.3 344.175 15.62 344.175 16.02V16.74V17.22L344.295 17.82V19.74C344.255 20.42 344.235 21.58 344.235 23.22V27.66C344.195 28.7 344.175 30.16 344.175 32.04V35.52V37.56V47.04L343.935 49.32C343.775 50.24 343.455 50.8 342.975 51L341.955 51.06L340.935 51H338.235H334.695H331.035H330.135C329.335 51.08 328.555 50.98 327.795 50.7C327.435 50.54 327.035 50.28 326.595 49.92L320.475 41.34C320.475 41.3 320.035 40.56 319.155 39.12C318.835 38.64 318.535 38.22 318.255 37.86C318.175 37.7 318.075 37.58 317.955 37.5C317.875 37.38 317.815 37.32 317.775 37.32C317.415 37.32 317.235 37.48 317.235 37.8V39.12C317.195 39.52 317.175 40.18 317.175 41.1V43.44V45.72C317.095 46.2 317.055 46.8 317.055 47.52V48.72V49.62L317.115 49.92C317.115 50.24 316.955 50.44 316.635 50.52C316.435 50.68 316.115 50.72 315.675 50.64C314.315 50.72 313.235 50.8 312.435 50.88C311.955 50.92 311.115 50.98 309.915 51.06C308.715 51.14 307.595 51.18 306.555 51.18ZM368.657 52.38C365.537 52.38 362.737 51.66 360.257 50.22C357.457 48.86 355.157 46.62 353.357 43.5C351.357 39.98 350.357 35.82 350.357 31.02C350.357 27.62 350.957 24.56 352.157 21.84C353.357 19.12 355.077 16.82 357.317 14.94C359.517 13.1 362.097 11.7 365.057 10.74C368.017 9.78 371.237 9.3 374.717 9.3C379.837 9.3 385.117 10.6 390.557 13.2L388.217 23.4C387.937 23.32 387.597 23.22 387.197 23.1C386.837 22.98 386.417 22.86 385.937 22.74C383.737 22.18 382.117 21.82 381.077 21.66C380.117 21.5 379.337 21.42 378.737 21.42C376.217 21.42 374.297 22.1 372.977 23.46C371.417 25.02 370.637 27.64 370.637 31.32C370.637 34.68 371.137 37.08 372.137 38.52C372.977 39.88 374.217 40.56 375.857 40.56C376.897 40.56 378.097 40.28 379.457 39.72C379.457 39.08 379.417 38.12 379.337 36.84L379.277 35.52C379.237 34.6 379.217 33.24 379.217 31.44V29.82C379.217 29.46 379.277 29.22 379.397 29.1C379.517 28.94 379.737 28.86 380.057 28.86C380.177 28.9 380.517 28.92 381.077 28.92H387.437C389.317 28.92 390.557 28.9 391.157 28.86C392.237 28.86 392.937 28.88 393.257 28.92C393.777 29.04 394.117 29.24 394.277 29.52C394.477 29.76 394.577 30.16 394.577 30.72C394.577 30.92 394.597 31.1 394.637 31.26V31.8V32.76V34.56V40.62V40.92C394.597 41.08 394.557 41.26 394.517 41.46C394.477 41.66 394.457 41.88 394.457 42.12V42.42C394.457 44.94 394.417 46.7 394.337 47.7C394.257 49.34 394.117 50.38 393.917 50.82C392.877 50.82 392.097 50.86 391.577 50.94L390.257 51H390.077C389.717 51 389.517 50.98 389.477 50.94C389.437 50.9 389.397 50.88 389.357 50.88C389.357 50.84 389.357 50.82 389.357 50.82H389.177C389.137 50.86 389.097 50.9 389.057 50.94C389.057 50.98 389.057 51 389.057 51H383.057H382.757H382.157H381.437C381.317 51.04 381.157 51.06 380.957 51.06C380.797 51.06 380.657 50.94 380.537 50.7C380.257 49.98 380.097 49.12 380.057 48.12C379.977 47.64 379.897 46.94 379.817 46.02C379.457 48.06 378.197 49.64 376.037 50.76C374.077 51.84 371.617 52.38 368.657 52.38Z" fill="white"/>
</g>
<defs>
<clipPath id="clip0">
<rect width="405" height="60" fill="white"/>
</clipPath>
</defs>
</svg>
