<svg width="124" height="60" viewBox="0 0 124 60" fill="none" xmlns="http://www.w3.org/2000/svg">
<g id="w9" clip-path="url(#clip0)">
<path id="w9_2" d="M33.26 9.18V13.62H15.08V27.72H29.84V32.16H15.08V51H9.62V9.18H33.26ZM58.8144 51.42C54.9344 51.42 51.3944 50.52 48.1944 48.72C44.9944 46.88 42.4544 44.34 40.5744 41.1C38.7344 37.82 37.8144 34.14 37.8144 30.06C37.8144 25.98 38.7344 22.32 40.5744 19.08C42.4544 15.8 44.9944 13.26 48.1944 11.46C51.3944 9.62 54.9344 8.7 58.8144 8.7C62.7344 8.7 66.2944 9.62 69.4944 11.46C72.6944 13.26 75.2144 15.78 77.0544 19.02C78.8944 22.26 79.8144 25.94 79.8144 30.06C79.8144 34.18 78.8944 37.86 77.0544 41.1C75.2144 44.34 72.6944 46.88 69.4944 48.72C66.2944 50.52 62.7344 51.42 58.8144 51.42ZM58.8144 46.68C61.7344 46.68 64.3544 46 66.6744 44.64C69.0344 43.28 70.8744 41.34 72.1944 38.82C73.5544 36.3 74.2344 33.38 74.2344 30.06C74.2344 26.7 73.5544 23.78 72.1944 21.3C70.8744 18.78 69.0544 16.84 66.7344 15.48C64.4144 14.12 61.7744 13.44 58.8144 13.44C55.8544 13.44 53.2144 14.12 50.8944 15.48C48.5744 16.84 46.7344 18.78 45.3744 21.3C44.0544 23.78 43.3944 26.7 43.3944 30.06C43.3944 33.38 44.0544 36.3 45.3744 38.82C46.7344 41.34 48.5744 43.28 50.8944 44.64C53.2544 46 55.8944 46.68 58.8144 46.68ZM109.042 51L99.0823 33.9H92.4823V51H87.0223V9.18H100.522C103.682 9.18 106.342 9.72 108.502 10.8C110.702 11.88 112.342 13.34 113.422 15.18C114.502 17.02 115.042 19.12 115.042 21.48C115.042 24.36 114.202 26.9 112.522 29.1C110.882 31.3 108.402 32.76 105.082 33.48L115.582 51H109.042ZM92.4823 29.52H100.522C103.482 29.52 105.702 28.8 107.182 27.36C108.662 25.88 109.402 23.92 109.402 21.48C109.402 19 108.662 17.08 107.182 15.72C105.742 14.36 103.522 13.68 100.522 13.68H92.4823V29.52Z" fill="white"/>
</g>
<defs>
<clipPath id="clip0">
<rect width="124" height="60" fill="white"/>
</clipPath>
</defs>
</svg>
